<?xml version="1.0" standalone="no"?>
<!DOCTYPE svg PUBLIC "-//W3C//DTD SVG 1.1//EN" "http://www.w3.org/Graphics/SVG/1.1/DTD/svg11.dtd" >
<!--
2013-9-30: Created.
-->
<svg>
<metadata>
Created by iconfont
</metadata>
<defs>

<font id="iconfont" horiz-adv-x="1024" >
  <font-face
    font-family="iconfont"
    font-weight="500"
    font-stretch="normal"
    units-per-em="1024"
    ascent="896"
    descent="-128"
  />
    <missing-glyph />
    
    <glyph glyph-name="x" unicode="x" horiz-adv-x="1001"
d="M281 543q-27 -1 -53 -1h-83q-18 0 -36.5 -6t-32.5 -18.5t-23 -32t-9 -45.5v-76h912v41q0 16 -0.5 30t-0.5 18q0 13 -5 29t-17 29.5t-31.5 22.5t-49.5 9h-133v-97h-438v97zM955 310v-52q0 -23 0.5 -52t0.5 -58t-10.5 -47.5t-26 -30t-33 -16t-31.5 -4.5q-14 -1 -29.5 -0.5
t-29.5 0.5h-32l-45 128h-439l-44 -128h-29h-34q-20 0 -45 1q-25 0 -41 9.5t-25.5 23t-13.5 29.5t-4 30v167h911zM163 247q-12 0 -21 -8.5t-9 -21.5t9 -21.5t21 -8.5q13 0 22 8.5t9 21.5t-9 21.5t-22 8.5zM316 123q-8 -26 -14 -48q-5 -19 -10.5 -37t-7.5 -25t-3 -15t1 -14.5
t9.5 -10.5t21.5 -4h37h67h81h80h64h36q23 0 34 12t2 38q-5 13 -9.5 30.5t-9.5 34.5q-5 19 -11 39h-368zM336 498v228q0 11 2.5 23t10 21.5t20.5 15.5t34 6h188q31 0 51.5 -14.5t20.5 -52.5v-227h-327z" />
    

    
    <glyph glyph-name="cart" unicode="&#58883;" d="M792.302592 312.891392c29.734912 0 60.710912 23.376896 68.8896 51.97824l78.364672 274.354176c8.153088 28.54912-9.445376 51.926016-39.18336 51.926016L347.15648 691.149824c0 59.682816-48.390144 108.073984-108.073984 108.073984L76.971008 799.223808l0-108.073984 162.111488 0 0-459.314176c0-44.7488 36.279296-81.05472 81.05472-81.05472l513.35168 0c29.868032 0 54.037504 24.195072 54.037504 54.03648 0 29.868032-24.169472 54.037504-54.037504 54.037504L347.15648 258.854912l0 54.037504L792.302592 312.892416zM347.15648 583.07584 835.863552 583.07584l-46.307328-162.111488L347.15648 420.964352 347.15648 583.07584zM401.19296 2.179072c0-37.149696-30.396416-67.547136-67.546112-67.547136l-27.017216 0c-37.15072 0-67.546112 30.39744-67.546112 67.547136l0 27.019264c0 37.149696 30.396416 67.546112 67.546112 67.546112l27.017216 0c37.15072 0 67.546112-30.396416 67.546112-67.546112L401.19296 2.179072zM887.5264 2.179072c0-37.149696-30.39744-67.547136-67.547136-67.547136l-27.019264 0c-37.149696 0-67.546112 30.39744-67.546112 67.547136l0 27.019264c0 37.149696 30.396416 67.546112 67.546112 67.546112l27.019264 0c37.149696 0 67.547136-30.396416 67.547136-67.546112L887.5264 2.179072z"  horiz-adv-x="1024" />

    
    <glyph glyph-name="iconboxchecked" unicode="&#58904;" d="M832 64 192 64 192 704l472.064 0L704 768 192 768C156.672 768 128 739.328 128 704l0-640c0-35.328 28.672-64 64-64l640 0c35.328 0 64 28.672 64 64L896 486.592 832 384 832 64zM939.712 824.704C932.16 829.632 923.648 832 915.264 832c-14.592 0-28.928-7.168-37.504-20.288L529.856 309.824l-134.592 153.6C377.024 480.256 348.736 479.168 331.904 460.992S316.224 414.464 334.4 397.696l161.792-184.64c1.024-1.664 2.624-2.944 3.904-4.48l4.096-4.672c0.512-0.448 1.152-0.576 1.664-1.024 1.28-1.024 2.048-2.432 3.392-3.392 2.752-1.792 5.76-2.944 8.768-4.032 0.704-0.256 1.28-0.704 1.984-0.896 4.48-1.472 9.152-2.368 13.76-2.368 0.192 0 0.384 0.128 0.576 0.128 12.16-0.064 24.256 4.416 33.152 14.016 1.664 1.792 2.304 3.968 3.648 5.952 0.064 0.064 0.128 0.128 0.192 0.192l381.376 550.208C966.208 783.36 960.448 811.136 939.712 824.704z"  horiz-adv-x="1024" />

    
    <glyph glyph-name="home" unicode="&#58886;" d="M953.710592 404.608c-7.671808-11.71456-22.46656-14.367744-33.081344-5.856256L522.91072 731.28448c-0.193536 0.110592-0.360448 0.205824-0.524288 0.316416-3.408896 2.70848-7.48032 4.165632-11.71456 4.165632s-8.331264-1.457152-11.767808-4.165632c-0.05632-0.055296-0.165888-0.110592-0.248832-0.13824l-397.96736-332.710912c-10.560512-8.511488-25.35424-5.858304-33.053696 5.856256-7.64416 11.71456-5.33504 28.10368 5.252096 36.683776l398.297088 332.8768c0.193536 0.082944 0.385024 0.262144 0.523264 0.412672 11.465728 8.979456 24.91392 13.722624 38.965248 13.722624 13.474816 0 26.427392-4.455424 37.536768-12.744704 0.66048-0.39936 1.319936-0.867328 1.951744-1.390592l150.695936-126.742528 0 16.086016c0 19.716096 14.354432 35.72224 32.091136 35.72224l61.266944 0c17.737728 0 32.147456-16.00512 32.147456-35.72224l0-116.651008 122.09664-105.56928C959.072256 432.71168 961.3568 416.32256 953.710592 404.608zM478.773248 620.944384c0.108544 0.108544 0.192512 0.136192 0.275456 0.274432 9.293824 7.286784 20.238336 11.205632 31.623168 11.205632 11.441152-0.055296 22.38464-3.946496 31.707136-11.343872 0 0 0.13824-0.08192 0.192512-0.136192l276.007936-234.128384c6.105088-5.0176 9.736192-12.923904 9.736192-21.256192l0-296.455168c0-50.695168-37.097472-91.904-82.746368-91.904L602.244096-22.79936 602.244096 198.199296c0 38.991872-28.435456 70.506496-63.468544 70.506496l-65.83296 0c-35.034112 0-63.439872-31.514624-63.439872-70.506496l0-220.998656L275.746816-22.79936c-45.5936 0-82.771968 41.208832-82.771968 91.904L192.974848 365.559808c0 8.332288 3.601408 16.237568 9.78944 21.256192L478.773248 620.944384z"  horiz-adv-x="1024" />

    
    <glyph glyph-name="setting" unicode="&#58918;" d="M797.836288 189.59872 650.46528 335.156224c9.498624 19.944448 14.758912 42.24 14.758912 65.637376 0 84.48-68.224 152.784896-152.781824 152.784896-14.052352 0-27.871232-1.888256-40.825856-5.495808l65.40288-65.16736c27.0848-27.32032 25.042944-73.013248-4.400128-102.375424-29.283328-29.207552-75.213824-31.250432-102.299648-4.400128l-65.24416 65.637376c-3.610624-13.032448-5.495808-26.69568-5.495808-40.983552 0-84.635648 68.462592-153.254912 152.861696-153.254912 23.23968 0 45.769728 5.34016 65.398784 14.91968l146.7392-145.881088c18.762752-18.36544 50.013184-17.26976 70.112256 3.144704C814.710784 139.659264 816.128 171.226112 797.836288 189.59872zM758.262784 130.24256c-14.206976 0-26.218496 11.6224-26.218496 26.063872 0 13.978624 12.010496 25.439232 26.218496 25.439232 14.368768 0 25.910272-11.459584 25.910272-25.439232C784.172032 141.86496 772.631552 130.24256 758.262784 130.24256zM833.163264 468.627456l-14.91968 0-34.776064 0.315392-0.234496 0c-6.985728 0.62464-13.664256 3.136512-19.475456 6.905856-0.38912 0-0.550912 0.161792-0.786432 0.470016-12.326912 8.014848-20.569088 22.30272-20.333568 38.163456 0 5.024768 1.020928 9.572352 2.592768 14.287872 1.410048 5.025792 3.922944 9.888768 7.303168 13.97248l7.691264 7.853056 17.350656 17.11616 10.211328 10.365952c14.839808 19.151872 14.839808 46.633984-0.550912 65.946624l-29.832192 30.618624c-19.864576 15.228928-47.264768 15.706112-66.659328 0.940032l-10.835968-10.35776-24.182784-24.815616 0 0-0.316416 0c-13.186048-10.673152-31.396864-12.716032-46.472192-6.119424-5.185536 2.351104-9.814016 5.332992-14.368768 9.734144-7.14752 7.691264-11.54048 16.961536-12.795904 26.850304l0 10.835968 0 24.338432 0 15.074304c-2.982912 24.338432-22.30272 43.496448-47.187968 46.324736l-42.553344 0c-24.418304-2.673664-44.12416-21.824512-47.581184-46.00832l0-14.91968 0-24.808448 0-9.894912 0 0 0-0.154624c-0.1536-1.256448-0.627712-2.666496-0.704512-3.76832 0-0.154624 0-0.470016 0-0.470016-0.393216-1.256448-0.550912-2.512896-0.705536-3.61472-0.473088 0-0.473088-0.470016-0.473088-0.470016-0.470016-1.101824-0.705536-2.827264-1.333248-3.613696l0 0c-0.393216-1.410048-1.178624-2.511872-1.80736-3.761152 0-0.161792 0-0.161792 0-0.161792-2.589696-5.341184-6.20032-9.887744-11.070464-13.81888-7.849984-6.751232-18.369536-10.835968-29.674496-10.835968-10.600448 0-20.492288 3.61472-28.109824 9.895936l-7.77216 7.852032-17.270784 16.955392-10.519552 10.681344c-19.316736 14.757888-46.71488 14.757888-65.949696-0.786432l-30.541824-30.148608c-15.39072-19.158016-15.625216-46.640128-0.944128-66.269184l10.523648-10.358784 24.649728-24.4992 0 0c0.473088-0.786432 0.863232-1.410048 1.33632-2.19648 0.31232-0.1536 0.627712-0.786432 1.256448-1.57184 0.31232-0.470016 0.627712-1.410048 1.097728-2.041856 0-0.154624 0.786432-0.940032 0.786432-1.410048 0.470016-0.631808 0.941056-1.726464 1.491968-2.512896 0-0.470016 0.1536-0.940032 0.393216-1.410048 0.470016-0.631808 0.627712-1.733632 1.333248-2.673664 0-0.309248 0.077824-0.786432 0.23552-1.256448 0.157696-1.410048 0.863232-2.512896 0.863232-3.922944l0 0c0.393216-1.417216 0.627712-2.666496 0.627712-4.084736l0 0c1.965056-13.502464-2.589696-27.635712-13.109248-38.001664l0 0c-7.45984-7.53664-17.03936-11.930624-26.9312-13.032448l-10.754048 0-24.341504 0-14.681088 0c-24.414208-3.452928-43.650048-22.920192-46.398464-47.104l-0.157696-42.871808c2.512896-24.654848 21.66784-43.966464 46.00832-47.264768l14.994432 0 34.702336-0.47104c1.256448-0.1536 2.982912-0.1536 4.16256-0.623616 0.470016 0 0.785408 0 1.178624 0 1.097728-0.470016 1.726464-0.786432 2.982912-0.941056 18.761728-5.810176 32.344064-23.242752 32.344064-43.966464l0 0c0-10.519552-3.610624-20.73088-9.96864-28.583936l-7.617536-7.375872 0 0-17.506304-17.11616-10.442752-10.365952c-14.604288-19.628032-14.604288-46.949376 0.54784-66.108416l30.383104-30.616576c19.393536-15.39072 46.560256-15.546368 66.265088-0.625664l10.361856 10.358784 24.889344 24.344576 0 0c0 0.309248 0.234496 0.309248 0.550912 0.470016 0.940032 0.940032 1.961984 1.410048 2.670592 2.35008 0.863232 0.161792 1.020928 0.161792 1.649664 0.632832 0.470016 0.308224 1.256448 0.940032 1.88416 1.410048 0.863232 0.470016 1.961984 0.631808 2.824192 1.101824 0.550912 0.308224 0.944128 0.470016 1.098752 0.786432 1.33632 0.154624 2.199552 0.623616 3.926016 1.094656l0 0 0 0c1.490944 0.470016 2.512896 1.101824 3.610624 1.101824 0.157696 0 0.157696 0 0.393216 0 1.179648 0.315392 2.435072 0.468992 3.76832 0.786432l0.316416 0c1.098752 0 2.19648 0 3.140608 0.468992 12.720128 0.47104 25.593856-3.930112 35.014656-13.664256 7.853056-7.535616 11.933696-17.26976 13.267968-27.164672l-0.154624-10.674176 0-24.182784 0-14.758912c2.982912-24.653824 22.530048-43.966464 46.949376-46.47936l42.944512 0c24.572928 2.512896 43.885568 21.670912 47.264768 45.692928l0 14.757888 0.38912 25.12384 0 9.894912 0 0c0.949248 8.947712 4.165632 16.329728 9.109504 22.92736 0.470016 0.787456 0.940032 1.257472 1.410048 1.727488 0.316416 0.1536 0.712704 1.093632 1.41824 1.410048 2.748416 2.982912 5.8112 5.656576 9.183232 8.006656l0 0c1.020928 0.161792 2.041856 0.941056 2.67264 1.41824 0.779264 0.47104 0.779264 0.47104 1.094656 0.47104l0 0c0.47104 0.1536 0.786432 0.1536 0.867328 0.1536 0.859136 0.631808 1.57184 0.631808 2.592768 1.101824l-41.064448 40.983552c-17.821696-5.18656-36.58752-7.698432-55.977984-7.698432-111.095808 0.160768-200.600576 90.129408-200.20736 200.67328 0 111.176704 90.287104 200.99072 201.225216 200.681472 110.783488-0.470016 200.20736-90.4448 200.045568-201.306112-0.073728-18.842624-2.90304-37.530624-7.926784-54.486016l41.372672-40.66816c2.123776 4.862976 5.495808 9.109504 9.264128 13.34784 4.246528 4.076544 9.894912 7.221248 15.074304 9.263104 3.85024 1.727488 7.85408 2.981888 11.702272 3.452928l11.071488 0 24.492032 0 14.53056 0c24.338432 3.298304 43.570176 22.610944 46.316544 46.949376l0 43.341824C876.424192 445.700096 857.347072 465.329152 833.163264 468.627456z"  horiz-adv-x="1024" />

    
    <glyph glyph-name="heart" unicode="&#58885;" d="M521.239299-19.365814 127.286087 346.281957c-40.253399 48.14451-62.427306 109.286032-62.427306 172.174338C64.857758 664.93439 184.031764 784.103514 330.515861 784.103514c68.271647 0 132.993299-25.668613 181.767094-71.327512C561.053681 758.433878 625.77738 784.103514 694.048003 784.103514c146.486144 0 265.659127-119.169123 265.659127-265.647219 0-62.888306-22.173907-124.029828-62.427306-172.174338l-2.675032-2.75781L587.000673 64.331423l-37.578367 41.399899L855.552805 383.61319c30.666673 37.355793 48.228351 86.398766 48.228351 134.842081 0 115.646903-94.080487 209.721489-209.732129 209.721489-62.317808 0-120.758149-26.952862-160.382189-73.949222l-21.383882-25.341155-21.383882 25.341155c-39.625063 46.99636-98.065404 73.949222-160.384235 73.949222-115.650619 0-209.730082-94.074585-209.730082-209.721489 0-48.498574 17.587261-97.597829 48.334779-134.953621l390.13203-361.849258L521.239299-19.365814zM490.162263 162.010093 208.528671 423.753399c-20.509943 27.143197-31.81487 60.787458-31.81487 94.701872 0 84.816734 68.980827 153.795758 153.801037 153.795758l0-55.92573c-53.961147 0-97.874038-43.910069-97.874038-97.870028 0-20.753673 6.93523-42.161239 19.116143-59.093886l276.417586-256.335133L490.162263 162.010093zM608.518614 560.181605l-48.991768 26.979468c19.798716 35.936467 52.458872 62.015426 91.974436 73.458035 39.488958 11.413957 81.024611 6.77224 116.963574-12.999059l-26.97955-48.989761c-22.830897 12.561084-49.292633 15.511275-74.444483 8.247848C641.889996 599.613686 621.081235 583.010543 608.518614 560.181605z"  horiz-adv-x="1024" />

    
    <glyph glyph-name="anonymous-iconfont" unicode="&#58942;" d="M851.89 318.898h-308.991v308.991c0 17.056-13.843 30.9-30.898 30.9s-30.9-13.843-30.9-30.9v-308.991h-308.991c-17.056 0-30.9-13.843-30.9-30.898s13.843-30.9 30.9-30.9h308.991v-308.991c0-17.056 13.843-30.9 30.898-30.9s30.9 13.843 30.9 30.9v308.991h308.991c17.056 0 30.9 13.843 30.9 30.898s-13.843 30.9-30.9 30.9z"  horiz-adv-x="1024" />

    
    <glyph glyph-name="icons01" unicode="&#58889;" d="M438.151612 149.004879c-170.501224-0.482-309.603862 137.833677-310.075628 308.315457-0.47279 170.499178 137.83163 309.596698 308.347181 310.058231 170.484851 0.497351 309.555764-137.824467 310.044928-308.321597C746.940883 288.580306 608.63237 149.476646 438.151612 149.004879zM436.505034 737.197773c-153.863514-0.415482-278.680112-125.940242-278.257466-279.789429 0.440043-153.84714 125.941265-278.647364 279.804779-278.230859 153.849187 0.429809 278.666808 125.948428 278.224718 279.795569C715.837023 612.830429 590.32045 737.629629 436.505034 737.197773zM864.032172 1.501518 658.438048 206.620805 689.703599 237.4852 895.282372 32.384334Z"  horiz-adv-x="1024" />

    
    <glyph glyph-name="iconfont24" unicode="&#58882;" d="M662.187-52.907c-6.827 0-17.067 3.413-20.48 10.24l-273.067 385.707 273.067 385.707c6.827 10.24 23.893 13.653 37.547 6.827 10.24-10.24 13.653-27.307 3.413-37.547l-252.587-354.987 252.587-351.573c6.827-10.24 6.827-27.307-6.827-37.547-3.413-3.413-10.24-6.827-13.653-6.827z"  horiz-adv-x="1024" />

    
    <glyph glyph-name="user" unicode="&#58930;" d="M914.995889-94.010749c-0.12382 1.277086-0.268106 2.548032-0.404206 3.822049-0.041956 2.761903-0.363274 5.454222-0.939395 8.05342-18.124799 142.505621-111.280456 261.58981-238.626819 316.390927 73.590042 50.418296 121.882931 135.070278 121.882931 231.004211 0 154.560168-125.299751 279.858896-279.840476 279.858896-154.561192 0-279.857872-125.298727-279.857872-279.858896 0-95.969749 48.327682-180.648336 121.965819-231.060493C233.213018 179.941624 140.72865 62.779204 121.266389-77.720737c-1.421372-4.098341-2.203178-8.494465-2.203178-13.074783l0.289596-3.055592c-0.005117-0.053212-0.01228-0.106424-0.017396-0.158612l0.031722 0 0.046049-0.487094c0-22.035876 17.865903-39.902802 39.900755-39.902802 22.036899 0 39.902802 17.866926 39.902802 39.902802l-0.046049 0.487094 0.723477 0c18.59245 152.391782 144.458089 271.641747 299.778574 279.984762 5.755074-0.353041 11.552104-0.553609 17.396205-0.553609 5.851265 0 11.654434 0.200568 17.415648 0.555655 155.348114-8.334829 281.222963-127.588887 299.81746-279.986809l0.806365 0 0.046049-0.487094c0-22.035876 17.866926-39.902802 39.902802-39.902802 22.034852 0 39.901779 17.866926 39.901779 39.902802l-0.046049 0.487094L914.995889-94.009725zM516.991176 265.301733c-110.393249 0-199.880353 89.487104-199.880353 199.87933 0 110.393249 89.48608 199.898773 199.880353 199.898773 110.392226 0 199.87933-89.505523 199.87933-199.898773C716.870506 354.788837 627.383402 265.301733 516.991176 265.301733z"  horiz-adv-x="1024" />

    
    <glyph glyph-name="delete" unicode="&#58896;" d="M960.00512 576l0-511.99488c0-106.04544-85.95968-192.00512-192-192.00512L256-128c-106.04032 0-192.00512 85.95968-192.00512 192.00512L63.99488 576C28.65152 576 0 604.65664 0 640c0 35.34848 28.65152 63.99488 63.99488 63.99488L320 703.99488C320 810.04032 405.9648 896 512.00512 896s192-85.95968 192-192.00512l256 0C995.3536 703.99488 1024 675.34848 1024 640 1024 604.65664 995.3536 576 960.00512 576zM512.00512 768c-35.34336 0-64-28.65152-64-64.00512l128.00512 0C576.01024 739.34848 547.34336 768 512.00512 768zM832.00512 576 192 576l0-511.99488c0-35.34848 28.65152-64.01536 64-64.01536l512.00512 0c35.34848 0 64 28.66688 64 64.01536L832.00512 576zM448.00512 512.00512l128.00512 0 0-448L448.00512 64.00512 448.00512 512.00512zM256 512.00512l128 0 0-448L256 64.00512 256 512.00512zM640.00512 512.00512l128 0 0-448-128 0L640.00512 512.00512z"  horiz-adv-x="1024" />

    
    <glyph glyph-name="icondaihuifu" unicode="&#58924;" d="M752.52454 61.662641c-114.895797 0-208.40347 93.417623-208.40347 208.312396 0 114.977661 93.507674 208.484312 208.40347 208.484312 114.982778 0 208.401424-93.50665 208.401424-208.484312C960.925964 155.080264 867.507318 61.662641 752.52454 61.662641L752.52454 61.662641zM752.52454 440.966433c-94.313016 0-170.910555-76.67838-170.910555-170.991396 0-94.045933 76.597539-170.732499 170.910555-170.732499 94.311992 0 170.909531 76.685543 170.909531 170.732499C923.433048 364.288053 846.836533 440.966433 752.52454 440.966433L752.52454 440.966433zM752.701572 251.542222c-10.288321 0-18.609847 8.411577-18.609847 18.698874L734.091726 376.453117c0 10.383488 8.321526 18.794042 18.609847 18.794042 10.383488 0 18.883069-8.410554 18.883069-18.794042L771.584642 270.153092C771.584642 259.953799 763.08506 251.542222 752.701572 251.542222L752.701572 251.542222zM838.781066 251.180995l-86.256526 0c-10.288321 0-18.794042 8.500605-18.794042 18.794042 0 10.377348 8.506744 18.787902 18.794042 18.787902l86.256526 0c10.295484 0 18.705014-8.411577 18.705014-18.787902C857.48608 259.6816 849.075527 251.180995 838.781066 251.180995L838.781066 251.180995zM316.486606 37.413354c-2.689249 0-5.28333 0.627287-7.876388 1.699712-6.534833 3.045359-10.917654 9.572006-10.917654 16.910135l-1.699712 133.326565-156.49831-1.431605c-43.131333 0-78.29725 35.075867-78.29725 78.030168L61.197292 661.807167c0 43.043329 35.164894 78.120218 78.112032 78.120218l627.796306 0c43.043329 0 78.119195-35.07689 78.119195-78.120218l0-217.07906c0-10.376325-8.499581-18.697851-18.698874-18.697851-10.471492 0-18.794042 8.321526-18.794042 18.697851L807.73191 661.807167c0 22.461571-18.077727 40.627303-40.625256 40.627303L139.310348 702.434469c-22.369473 0-40.441061-18.165732-40.441061-40.627303l0-395.859863c0-22.282492 18.071587-40.448224 40.441061-40.448224l175.116343 1.609661 0.086981 0c10.295484 0 18.61087-8.321526 18.794042-18.696828l1.427512-112.567775L485.069139 221.116259c3.577478 2.867304 7.783267 4.38282 12.165064 4.38282l77.225849 0c10.288321 0 18.697851-8.411577 18.697851-18.786878 0-10.383488-8.410554-18.794042-18.697851-18.794042l-70.425979 0L328.476685 41.796174C325.075215 38.936033 320.694441 37.413354 316.486606 37.413354L316.486606 37.413354zM574.460052 579.756429 219.846592 579.756429c-10.29446 0-18.882046 8.322549-18.882046 18.786878 0 10.384511 8.588609 18.706037 18.882046 18.706037l354.61346 0c10.288321 0 18.697851-8.321526 18.697851-18.706037C593.157903 588.078978 584.748373 579.756429 574.460052 579.756429L574.460052 579.756429zM508.689093 440.966433 219.846592 440.966433c-10.29446 0-18.882046 8.417717-18.882046 18.794042 0 10.288321 8.588609 18.698874 18.882046 18.698874l288.932552 0c10.288321 0 18.697851-8.410554 18.697851-18.698874C527.38899 449.38415 519.066441 440.966433 508.689093 440.966433L508.689093 440.966433zM70.681294 619.393171"  horiz-adv-x="1024" />

    
    <glyph glyph-name="fankui" unicode="&#58909;" d="M167.488 267.584l65.6 0L233.088 333.184 167.488 333.184 167.488 267.584zM331.584 267.584l65.6 0L397.184 333.184 331.584 333.184 331.584 267.584zM1020.544 512.384c0 154.688-163.456 280.128-365.12 280.128-138.176 0-258.368-58.944-320.384-145.792 25.728 6.336 52.736 10.496 80.64 12.288 56.96 41.6 137.408 68.032 227.392 68.032 172.352 0 312.064-95.424 312.064-213.184 0-51.968-28.096-98.88-73.536-135.68l21.888-131.84-98.688 79.296c-7.232-28.16-19.84-54.784-37.184-79.232 17.024 4.288 33.728 9.152 49.6 15.168l137.024-91.776-20.16 161.856C987.968 380.48 1020.544 443.456 1020.544 512.384zM364.48 596.032c-199.36 0-360.96-124.992-360.96-279.104 0-82.24 46.272-155.968 119.488-207.04l-21.312-170.368 164.032 109.12c31.424-6.912 64.512-10.816 98.816-10.816 199.36 0 360.96 124.992 360.96 279.104S563.84 596.032 364.48 596.032zM364.48 103.296c-31.168 0-60.608 4.416-88.768 10.88l-122.88-98.112 22.976 137.664c-64.832 39.168-106.944 97.344-106.944 163.2 0 117.952 132.352 213.632 295.616 213.632s295.616-95.616 295.616-213.632C660.096 198.912 527.744 103.296 364.48 103.296zM495.616 267.584l65.6 0L561.216 333.184 495.616 333.184 495.616 267.584z"  horiz-adv-x="1024" />

    
    <glyph glyph-name="zhankai" unicode="&#58901;" d="M930.482123 584.817141c-9.383051 11.284426-22.97205 17.067349-36.561049 17.067349-10.839271 0-21.759386-3.639015-30.656348-11.161625L527.536936 309.044068l-335.728814 281.678798c-8.895939 7.523633-19.817077 11.161625-30.655325 11.161625-13.588999 0-27.179021-5.782923-36.562072-17.067349-16.986505-20.141477-14.397442-50.271826 5.823857-67.21842L496.192901 210.706748c9.111864-7.648481 20.275536-11.300799 31.345059-11.147298 11.067477-0.153502 22.232171 3.498817 31.343012 11.147298l365.697474 306.891973C944.799744 534.545315 947.468628 564.675664 930.482123 584.817141z"  horiz-adv-x="1024" />

    
    <glyph glyph-name="xiugai" unicode="&#58903;" d="M932.981007 251.462404c-16.379039 0-35.289738-13.401218-35.289738-29.780257l0-120.1648c0-57.029878-46.010917-103.189174-102.59361-103.189174L225.992057-1.671827c-56.732096 0-102.59361 46.159296-102.59361 103.189174l0 567.914474c0 57.029878 45.861514 103.189174 102.59361 103.189174l252.091482 0c16.379039 0 29.631878-1.488911 29.631878 14.890128s-13.251815 44.670385-29.631878 44.670385L182.213995 832.181509c-65.367777 0-118.377084-53.30709-118.377084-119.122051l0-655.17077c0-65.814961 53.009308-119.122051 118.377084-119.122051l656.659681 0c65.367777 0 118.377084 53.30709 118.377084 119.122051L957.25076 221.682148C957.251783 238.061187 949.360046 251.462404 932.981007 251.462404zM247.731174 153.037744c-4.764514-32.460296 17.421788-54.200436 49.584302-48.244794l188.80818 34.098609L276.915867 349.440903 247.731174 153.037744zM639.643122 615.976352c23.229051 23.37743 60.603263 23.37743 83.832314 0l41.841967-41.990347c23.079648-23.37743 23.079648-61.050448 0-84.278475L576.954361 300.15336c-23.079648-23.229051-60.603263-23.229051-83.682911 0l-41.841967 42.139749c-23.079648 23.229051-23.079648 60.901045 0 84.278475L639.643122 615.976352zM535.113417 173.736159l355.727841 358.110097L681.633469 742.394576 325.905628 384.432859 535.113417 173.736159zM935.809425 591.40677c34.694173 34.843576 24.420179 81.152275-10.273994 115.994828L841.85252 791.681096c-34.694173 34.843576-90.830705 34.843576-125.524878 0l209.207789-210.54832L935.809425 591.40677z"  horiz-adv-x="1024" />

    
    <glyph glyph-name="pinglun" unicode="&#58914;" d="M527.969717 838.254831c-245.485017 0-444.48942-171.553191-444.48942-383.180076 0-307.157635 275.893584-364.091322 444.48942-488.282832 179.548282 150.471037 444.494537 176.74647 444.494537 488.282832C972.464253 666.700617 773.455757 838.254831 527.969717 838.254831L527.969717 838.254831zM319.169203 355.138672c-50.018184 0-90.559529 40.547485-90.559529 90.560552 0 50.018184 40.541345 90.560552 90.559529 90.560552 50.015114 0 90.561575-40.542368 90.561575-90.560552C409.730779 395.686157 369.184317 355.138672 319.169203 355.138672L319.169203 355.138672zM543.911804 355.138672c-50.018184 0-90.560552 40.547485-90.560552 90.560552 0 50.018184 40.542368 90.560552 90.560552 90.560552 50.013067 0 90.560552-40.542368 90.560552-90.560552C634.472356 395.686157 593.924871 355.138672 543.911804 355.138672L543.911804 355.138672zM759.278873 355.138672c-50.018184 0-90.560552 40.547485-90.560552 90.560552 0 50.018184 40.547485 90.560552 90.560552 90.560552 50.018184 0 90.561575-40.542368 90.561575-90.560552C849.840448 395.686157 809.297057 355.138672 759.278873 355.138672L759.278873 355.138672z"  horiz-adv-x="1024" />

    
    <glyph glyph-name="521shouyinjiesuan" unicode="&#58895;" d="M512.759293-63.175599c-60.395532 0-118.995161 11.83249-174.170808 35.170011-53.283554 22.537296-101.132328 54.797024-142.218072 95.881744-41.085744 41.085744-73.345472 88.934518-95.881744 142.218072-23.337521 55.175647-35.171034 113.775276-35.171034 174.170808 0 60.395532 11.83249 118.995161 35.171034 174.170808 22.536272 53.283554 54.796 101.132328 95.881744 142.218072s88.934518 73.345472 142.218072 95.881744c55.175647 23.337521 113.775276 35.171034 174.170808 35.171034s118.994138-11.83249 174.170808-35.171034c53.28253-22.536272 101.132328-54.796 142.218072-95.881744 41.085744-41.085744 73.345472-88.934518 95.882767-142.218072 23.337521-55.175647 35.170011-113.775276 35.170011-174.170808 0-60.395532-11.83249-118.995161-35.170011-174.170808-22.537296-53.283554-54.797024-101.132328-95.882767-142.218072-41.084721-41.084721-88.934518-73.344448-142.218072-95.881744C631.753431-51.343109 573.154825-63.175599 512.759293-63.175599zM512.759293 790.774447c-224.149083 0-406.508387-182.359304-406.508387-406.508387s182.359304-406.508387 406.508387-406.508387c224.150106 0 406.509411 182.359304 406.509411 406.508387S736.909399 790.774447 512.759293 790.774447zM686.175925 614.447533 557.465494 395.485589l101.415784 0 0-48.381917L540.717042 347.103672l0-66.680678 118.16526 0 0-49.003064L540.717042 231.419929l0-97.074919-60.787458 0 0 97.074919L357.423459 231.419929l0 49.003064 122.507148 0 0 66.680678L357.423459 347.103672l0 48.381917 104.518448 0L334.472747 614.447533l68.541049 0c59.547211-108.759029 95.727225-177.712471 108.550275-206.865441l1.24127 0c4.341888 11.989055 16.228613 36.180014 35.666314 72.573899l72.884984 134.291542L686.175925 614.447533z"  horiz-adv-x="1024" />

    
    <glyph glyph-name="jiantou" unicode="&#58936;" d="M736.886-96.99c-10.174 0-19.573 3.793-26.469 10.684l-461.513 461.094c-2.098 2.070-3.22 4.782-3.22 7.7 0 2.914 1.122 5.627 3.157 7.633l461.575 461.162c6.894 6.885 16.293 10.678 26.467 10.678 10.809 0 21.353-4.337 28.926-11.903 7.248-7.246 11.251-16.86 11.269-27.069 0.020-10.219-3.967-19.842-11.23-27.094l-413.358-413.407 413.349-413.405c7.269-7.26 11.259-16.885 11.239-27.102-0.019-10.208-4.023-19.824-11.275-27.072-7.572-7.559-18.115-11.898-28.921-11.898v0z"  horiz-adv-x="1024" />

    
    <glyph glyph-name="wodeshoucang" unicode="&#58890;" d="M511.229962 610.561016C411.220201 831.589015 96.49317 775.565047 96.49317 497.183805c0-191.801351 403.741367-430.248068 415.315984-475.740168 10.531867 47.111994 414.504502 287.297308 414.504502 477.764268C926.314679 767.288546 624.783181 829.38993 511.229962 610.561016z"  horiz-adv-x="1024" />

    
    <glyph glyph-name="fenlei" unicode="&#58891;" d="M362.061802 868.153295 116.963153 868.153295c-49.220928 0-89.127246-39.904274-89.127246-89.127246l0-245.099671c0-49.222972 39.905296-89.127246 89.127246-89.127246l245.099671 0c49.222972 0 89.127246 39.904274 89.127246 89.127246L451.19007 779.026049C451.189048 828.249021 411.284774 868.153295 362.061802 868.153295zM362.061802 578.490512c0-24.61302-19.951114-44.563112-44.563112-44.563112L161.526265 533.9274c-24.610975 0-44.563112 19.951114-44.563112 44.563112L116.963153 734.462937c0 24.61302 19.952137 44.563112 44.563112 44.563112l155.972425 0c24.61302 0 44.563112-19.951114 44.563112-44.563112L362.061802 578.490512zM362.061802 355.672908 116.963153 355.672908c-49.220928 0-89.127246-39.904274-89.127246-89.127246l0-245.099671c0-49.222972 39.905296-89.127246 89.127246-89.127246l245.099671 0c49.222972 0 89.127246 39.904274 89.127246 89.127246L451.19007 266.545662C451.189048 315.768635 411.284774 355.672908 362.061802 355.672908zM362.061802 66.010126c0-24.61302-19.951114-44.563112-44.563112-44.563112L161.526265 21.447014c-24.610975 0-44.563112 19.951114-44.563112 44.563112L116.963153 221.982551c0 24.61302 19.952137 44.563112 44.563112 44.563112l155.972425 0c24.61302 0 44.563112-19.951114 44.563112-44.563112L362.061802 66.010126zM607.161473 444.800154l245.099671 0c49.222972 0 89.127246 39.904274 89.127246 89.127246L941.388389 779.026049c0 49.222972-39.904274 89.127246-89.127246 89.127246L607.161473 868.153295c-49.220928 0-89.127246-39.904274-89.127246-89.127246l0-245.099671C518.034227 484.704428 557.939522 444.800154 607.161473 444.800154zM607.161473 734.462937c0 24.61302 19.952137 44.563112 44.563112 44.563112l155.972425 0c24.61302 0 44.563112-19.951114 44.563112-44.563112l0-155.972425c0-24.61302-19.951114-44.563112-44.563112-44.563112L651.724584 533.9274c-24.610975 0-44.563112 19.951114-44.563112 44.563112L607.161473 734.462937zM1010.936655-51.924832l-76.073911 76.073911c-1.716522 1.716522-3.608887 3.128384-5.515566 4.505486 21.635943 33.196651 34.323278 72.761505 34.323278 115.341262 0 116.905454-94.770605 211.677081-211.677081 211.677081-116.904432 0-211.676059-94.770605-211.676059-211.677081s94.77265-211.677081 211.676059-211.677081c42.58078 0 82.143589 12.687334 115.342284 34.323278 1.378125-1.905656 2.788964-3.798022 4.505486-5.514543l76.073911-76.074933c17.402402-17.403424 45.620219-17.403424 63.022621 0C1028.340079-97.545052 1028.340079-69.327234 1010.936655-51.924832zM751.992353 21.447014c-67.682482 0-122.549835 54.866331-122.549835 122.549835s54.866331 122.549835 122.549835 122.549835c67.684526 0 122.549835-54.866331 122.549835-122.549835S819.676879 21.447014 751.992353 21.447014z"  horiz-adv-x="1024" />

    
    <glyph glyph-name="setting1" unicode="&#58920;" d="M972.512 490.272l-98.048 19.648c-4.928 14.176-10.752 27.936-17.184 41.248l55.552 83.328c16.928 25.376 13.568 59.2-8 80.736l-61.568 61.568c-12.384 12.384-28.736 18.752-45.312 18.752-12.256 0-24.64-3.52-35.424-10.752L679.2 729.28c-13.376 6.464-27.136 12.224-41.312 17.152l-19.616 98.08C612.32 874.464 586.016 896 555.52 896l-87.072 0c-30.496 0-56.736-21.536-62.752-51.456l-19.616-98.08c-14.176-4.928-27.936-10.72-41.248-17.152L261.504 784.8c-10.88 7.232-23.232 10.752-35.488 10.752-16.544 0-32.896-6.368-45.28-18.752L119.168 715.264c-21.568-21.568-24.928-55.36-8-80.736l55.52-83.328c-6.464-13.344-12.224-27.104-17.152-41.28l-98.08-19.616C21.504 484.32 0 458.016 0 427.52l0-87.072c0-30.496 21.536-56.768 51.456-62.752l98.08-19.648c4.928-14.176 10.72-27.936 17.152-41.248l-55.52-83.328c-16.928-25.376-13.568-59.2 8-80.736l61.568-61.568c12.384-12.384 28.736-18.752 45.28-18.752 12.288 0 24.672 3.52 35.488 10.752l83.328 55.52c13.312-6.464 27.072-12.224 41.248-17.152l19.616-98.08C411.712-106.464 437.952-128 468.448-128l87.072 0c30.496 0 56.8 21.536 62.752 51.456l19.68 98.08c14.176 4.928 27.936 10.72 41.248 17.152l83.328-55.52c10.816-7.232 23.2-10.752 35.424-10.752 16.576 0 32.928 6.368 45.312 18.752l61.568 61.568c21.568 21.568 24.928 55.36 8 80.736l-55.552 83.328c6.496 13.344 12.256 27.104 17.184 41.28l98.048 19.616C1002.464 283.68 1024 309.984 1024 340.48L1024 427.52C1024 458.016 1002.464 484.32 972.512 490.272zM861.888 320.832c-22.24-4.448-40.448-20.32-47.872-41.728-4.128-11.808-8.928-23.296-14.304-34.4-9.952-20.416-8.256-44.544 4.32-63.392l55.552-83.328-61.568-61.568-83.328 55.52C704 99.104 691.648 102.72 679.2 102.72c-9.504 0-19.072-2.112-27.872-6.368-11.136-5.376-22.56-10.208-34.432-14.336-21.376-7.424-37.248-25.664-41.696-47.872L555.52-64l-87.072 0-19.616 98.112c-4.448 22.208-20.32 40.448-41.696 47.872-11.808 4.128-23.328 8.896-34.432 14.304-8.8 4.288-18.368 6.4-27.872 6.4-12.448 0-24.8-3.616-35.488-10.752l-83.328-55.52-61.568 61.568 55.52 83.328c12.576 18.88 14.208 42.976 4.384 63.36-5.376 11.104-10.208 22.56-14.336 34.4-7.424 21.408-25.664 37.28-47.872 41.728L64 340.48 64 427.52l98.112 19.616c22.208 4.448 40.448 20.32 47.872 41.728 4.128 11.808 8.896 23.296 14.304 34.4 9.92 20.416 8.256 44.544-4.352 63.392L164.416 670.016l61.568 61.568 83.328-55.52C320 668.896 332.384 665.28 344.832 665.28c9.504 0 19.008 2.112 27.872 6.368 11.072 5.376 22.56 10.208 34.368 14.336 21.44 7.424 37.312 25.664 41.76 47.872l19.616 98.08L555.52 832l19.616-98.112c4.448-22.208 20.32-40.448 41.76-47.872 11.808-4.128 23.264-8.896 34.368-14.304 8.864-4.288 18.368-6.4 27.936-6.4 12.448 0 24.8 3.616 35.488 10.752l83.328 55.52 61.568-61.568-55.552-83.328c-12.576-18.88-14.176-42.976-4.384-63.36 5.376-11.104 10.24-22.56 14.368-34.4 7.424-21.408 25.632-37.28 47.872-41.728l98.048-19.648L960 340.48 861.888 320.832zM512 608c-123.68 0-224-100.32-224-224s100.32-224 224-224 224 100.32 224 224S635.712 608 512 608zM512 188c-108.256 0-196 87.776-196 196S403.776 580 512 580c108.192 0 196-87.776 196-196S620.192 188 512 188zM512 512c-70.752 0-128-57.28-128-128s57.248-128 128-128c70.688 0 128 57.28 128 128S582.688 512 512 512zM512 288c-52.992 0-96 43.008-96 96s43.008 96 96 96 96-43.008 96-96S565.024 288 512 288z"  horiz-adv-x="1024" />

    
    <glyph glyph-name="guoneishouhou" unicode="&#58888;" d="M910.611022 321.265326C899.860167 421.431653 853.630263 513.938534 780.402471 581.753035c-66.568115 61.610196-150.698211 98.28856-239.528352 104.97382L540.874119 714.046061c0 12.138458-9.756201 21.966291-21.788236 21.966291-12.054547 0-21.835308-9.827833-21.835308-21.966291l0-26.471908c-96.544847-3.431146-188.098006-42.077328-259.138992-109.716844-74.008574-70.421886-119.172193-165.851329-127.22459-268.682345-0.710175-8.880251 3.978614-17.289782 11.841699-21.326724 7.862062-4.037966 17.359366-2.888793 24.060999 2.89084 19.72832 17.039072 60.273758 28.03859 103.305831 28.03859 32.279171 0 63.517639-6.169513 85.73157-16.884552 16.411785-7.945973 27.022447-18.212804 27.022447-26.181289 0-12.128225 9.757225-21.979594 21.811772-21.979594 12.029988 0 21.788236 9.851369 21.788236 21.979594 0 7.968485 10.610662 18.235316 27.045983 26.170033 17.108656 8.261151 39.591717 13.805424 63.755046 15.923668l0-402.027329c-0.711198-2.345418-9.283434-9.43693-24.772196-9.43693-15.489786 0-24.062022 7.091512-24.795732 9.43693-0.047072 12.090363-9.781784 21.88238-21.788236 21.88238-12.053524 0-21.811772-9.851369-21.811772-21.988804 0-29.864168 30.054503-53.2856 68.396763-53.2856 35.095309 0 63.198368 19.602454 67.737754 45.803185l0.657986 0L540.875143 317.832134c24.287149-2.096754 46.89403-7.652284 64.063061-15.951297 16.411785-7.934716 27.045983-18.201547 27.045983-26.170033 0-12.128225 9.757225-21.979594 21.788236-21.979594 12.054547 0 21.811772 9.851369 21.811772 21.979594 0 7.968485 10.610662 18.235316 27.045983 26.170033 22.192442 10.726296 53.428863 16.896832 85.732593 16.896832 34.859949 0 67.756173-7.009647 90.233094-19.206434 7.127328-3.883447 15.795754-3.469008 22.497387 1.102101C907.817396 305.219885 911.487995 313.153578 910.611022 321.265326zM354.679463 341.513486c-28.278043 13.688767-65.435315 21.209044-104.58394 21.209044-33.156144 0-64.370053-5.352915-90.042759-14.981203 29.850865 153.432485 153.660682 272.263917 304.374242 292.950052-26.253944-29.214369-48.765657-65.459874-66.337871-107.146299-24.521486-58.189284-38.363749-124.751259-40.356127-193.566554C356.724029 340.495296 355.718119 341.013089 354.679463 341.513486zM623.787504 341.513486c-28.27702 13.688767-65.435315 21.209044-104.560404 21.209044-39.147602 0-76.282361-7.520277-104.582917-21.209044-4.792143-2.310625-9.257851-4.776793-13.419637-7.373944 2.626827 124.506688 47.874357 238.769059 117.849058 298.953789 69.939909-60.154032 115.177206-174.331467 117.845988-298.764478C632.839671 336.855396 628.464013 339.258119 623.787504 341.513486zM788.336164 362.72253c-39.147602 0-76.282361-7.520277-104.560404-21.209044-1.150196-0.554632-2.266623-1.12666-3.381004-1.697665-1.971911 68.864414-15.796778 135.49495-40.337707 193.730283-17.009396 40.35101-38.656415 75.603909-63.836911 104.31788 141.464919-26.54047 254.972089-138.342812 285.272185-284.6142C839.421656 359.453067 814.459125 362.72253 788.336164 362.72253z"  horiz-adv-x="1024" />

    
    <glyph glyph-name="user1" unicode="&#58892;" d="M512 774.4c-102.4 0-185.6-108.8-185.6-243.2 0-134.4 83.2-243.2 185.6-243.2 102.4 0 185.6 108.8 185.6 243.2C697.6 672 614.4 774.4 512 774.4zM806.4 179.2c-44.8 32-172.8 51.2-172.8 51.2S544 140.8 512 140.8c-38.4 0-121.6 89.6-121.6 89.6s-128-19.2-172.8-51.2c-44.8-32-64-192-64-192l723.2 0C870.4-6.4 857.6 147.2 806.4 179.2z"  horiz-adv-x="1024" />

    
    <glyph glyph-name="shouhoufuwudan" unicode="&#58922;" d="M591.822488 257.343345l-45.342698-66.585511c-11.701506-17.183358-35.335786-21.677719-52.535517-9.977235l-95.901187 65.298192c-17.182334 11.713786-21.674649 35.353183-9.977235 52.549843l139.346675 204.611098c11.711739 17.197684 35.351136 21.676695 52.54882 9.976212l95.901187-65.311495c17.181311-11.706623 21.660322-35.338856 9.960863-52.526307l-45.345768-66.594721 346.878289-236.220003c11.219529-7.638981 14.140045-23.022343 6.500041-34.242895l-20.910239-30.695093c-7.625678-11.219529-23.026436-14.140045-34.228569-6.485715L591.822488 257.343345zM977.960942 728.628038l-0.042979-0.052189c-23.967878 23.945365-56.954153 38.805818-93.191472 38.805818L171.816692 767.381667c-36.313044 0-69.313645-14.852266-93.234451-38.761815-23.909549-23.906479-38.754652-56.921407-38.754652-93.242637l0-478.04056c0-36.31202 14.84408-69.326948 38.754652-93.234451 23.920806-23.909549 56.921407-38.768979 93.234451-38.768979l302.924217 0c-5.737678 15.909341-9.451256 32.777521-10.862395 50.27401L171.816692 75.607234c-22.440082 0-42.872436 9.212826-57.68991 24.026206-14.813381 14.830777-24.026206 35.263132-24.026206 57.704237L90.100576 584.947661l876.343055 0 0-134.780683c17.438161-0.524956 34.272571-3.341095 50.272987-8.148587L1016.716618 635.377214C1016.716618 671.712771 1001.871515 704.713372 977.960942 728.628038zM955.147354 652.987291 101.38048 652.987291l0 1.969864c0 28.738531 23.442922 52.182476 52.176336 52.182476l749.416248 0c28.747741 0 52.173267-23.458271 52.173267-52.182476L955.146331 652.987291z"  horiz-adv-x="1024" />

    
    <glyph glyph-name="iconfontlianxiren" unicode="&#58917;" d="M419.559635 403.256576c11.416004-65.25419 65.132416-129.927141 135.431505-129.927141 70.269413 0 123.984802 64.672952 135.39569 129.927141 14.874779 7.048533 25.190729 22.364357 25.190729 40.079834 0 10.874675-3.953032 21.142529-10.756995 29.049616 2.90005 12.342096 4.366448 24.951275 4.366448 37.736463 0 88.00331-69.179592 159.616324-154.195871 159.616324-85.052095 0-154.227594-71.621201-154.227594-159.616324 0-12.754488 1.467421-25.360598 4.369517-37.702694-6.79987-7.930623-10.769274-18.199501-10.769274-29.083385C394.363789 425.617863 404.719648 410.302039 419.559635 403.256576L419.559635 403.256576 419.559635 403.256576 419.559635 403.256576zM852.077396 149.980105c-55.348586 46.908356-122.803907 80.040964-195.317431 95.959515-2.526543 1.031493-5.290493 1.61887-8.108678 1.61887l-6.499018 0c-3.069919 0-6.119371-0.680499-8.928347-1.964748-20.640086-9.686616-49.152467-15.21861-78.232782-15.21861-29.093619 0-57.627489 5.528923-78.292134 15.21861-2.802836 1.287319-5.858428 1.992377-8.928347 1.992377l-4.700045 0c-1.438769 0-2.862187-0.183172-4.253884-0.428765-74.636884-15.452947-144.108119-49.036833-200.943568-97.175203-4.558829-3.864004-7.188726-9.498328-7.188726-15.459087l0-38.796608c0-11.250228 9.274224-20.37198 20.717857-20.37198l567.134715 0c11.458983 0 20.732184 9.121751 20.732184 20.37198L859.269191 134.524089C859.268168 140.478707 856.654644 146.094612 852.077396 149.980105L852.077396 149.980105 852.077396 149.980105 852.077396 149.980105zM852.077396 149.980105M164.68783 277.829935c-17.429974 0-31.571043 14.113439-31.571043 31.571043L133.116787 467.271542c0 17.429974 14.147208 31.577183 31.571043 31.577183 17.429974 0 31.571043-14.147208 31.571043-31.577183l0-157.871587C196.257849 291.943374 182.117804 277.829935 164.68783 277.829935L164.68783 277.829935 164.68783 277.829935 164.68783 277.829935zM859.303984-37.909146 227.836055-37.909146c-52.226478 0-94.719268 42.186821-94.719268 94.067422l0 63.805188c0 17.464767 14.147208 31.571043 31.571043 31.571043 17.429974 0 31.571043-14.106276 31.571043-31.571043l0-63.805188c0-17.08512 14.186094-30.919197 31.577183-30.919197l631.467929 0c17.439184 0 31.577183 14.146185 31.577183 31.577183L890.881167 688.284191c0 17.391089-14.139022 31.571043-31.577183 31.571043L227.836055 719.855234c-18.315134 0-31.577183-10.004865-31.577183-16.798595l0-46.347584c0-17.432021-14.141068-31.571043-31.571043-31.571043-17.429974 0-31.571043 14.145162-31.571043 31.571043l0 46.347584c0 44.073798 42.499953 79.94682 94.719268 79.94682l631.467929 0c52.232618 0 94.726431-42.499953 94.726431-94.719268l0-631.467929C954.029392 4.590807 911.529439-37.909146 859.303984-37.909146L859.303984-37.909146 859.303984-37.909146 859.303984-37.909146zM196.257849 530.413628l-94.717222 0c-17.424858 0-31.571043 14.152325-31.571043 31.576159 0 17.424858 14.145162 31.571043 31.571043 31.571043l94.724385 0c17.429974 0 31.571043-14.146185 31.571043-31.571043C227.836055 544.565952 213.688847 530.413628 196.257849 530.413628L196.257849 530.413628 196.257849 530.413628 196.257849 530.413628zM196.257849 183.110667l-94.717222 0c-17.424858 0-31.571043 14.113439-31.571043 31.571043s14.145162 31.577183 31.571043 31.577183l94.724385 0c17.429974 0 31.571043-14.120602 31.571043-31.577183S213.688847 183.110667 196.257849 183.110667L196.257849 183.110667 196.257849 183.110667 196.257849 183.110667z"  horiz-adv-x="1024" />

    
    <glyph glyph-name="icon32223" unicode="&#58943;" d="M681.047 337.557h-200.628c-10.032 0-16.719 6.687-16.719 16.719v0c0 10.032 6.687 16.719 16.719 16.719h200.628c10.032 0 16.719-6.687 16.719-16.719v0c0-10.032-6.687-16.719-16.719-16.719zM497.139 588.341v-234.067c0-10.032-6.687-16.719-16.719-16.719v0c-10.032 0-16.719 6.687-16.719 16.719v234.067c0 10.032 6.687 16.719 16.719 16.719v0c10.032 0 16.719-10.032 16.719-16.719zM513.858 36.614c-193.941 0-351.099 157.157-351.099 351.099s157.157 351.099 351.099 351.099 351.099-157.157 351.099-351.099c0-193.941-157.157-351.099-351.099-351.099zM513.858 705.375c-173.878 0-317.661-143.785-317.661-317.661s143.785-317.661 317.661-317.661 317.661 143.785 317.661 317.661-140.439 317.661-317.661 317.661z"  horiz-adv-x="1024" />

    
    <glyph glyph-name="sousuo" unicode="&#58880;" d="M694.453449 194.199349c39.445384 51.642171 63.140039 115.963105 63.140039 185.965435 0 169.547511-137.444349 306.99186-306.99186 306.99186-169.547511 0-306.99186-137.444349-306.99186-306.99186s137.444349-306.99186 306.99186-306.99186c70.00233 0 134.322242 23.693632 185.965435 63.140039l185.936783-185.936783 57.886385 57.887408L694.453449 194.199349zM450.601628 155.037421c-124.334773 0-225.127364 100.792591-225.127364 225.127364s100.792591 225.127364 225.127364 225.127364 225.127364-100.792591 225.127364-225.127364S574.936401 155.037421 450.601628 155.037421z"  horiz-adv-x="1024" />

    
    <glyph glyph-name="weibiaoti206" unicode="&#58902;" d="M435.2 398.08c-16.64-35.84-14.08-79.36 11.52-113.92 25.6-34.56 66.56-51.2 107.52-47.36l-57.6 79.36c-10.24 14.08-6.4 33.28 7.68 42.24l42.24 29.44c14.08 10.24 33.28 6.4 43.52-6.4l57.6-79.36c17.92 37.12 15.36 80.64-10.24 116.48-30.72 42.24-84.48 57.6-131.84 42.24-1.28 1.28-2.56 3.84-5.12 5.12L243.2 730.88c-15.36 15.36-42.24 15.36-57.6 0l-19.2-19.2c-15.36-15.36-15.36-42.24 0-57.6l267.52-253.44C433.92 399.36 433.92 399.36 435.2 398.08zM236.8 660.48c-10.24-10.24-26.88-10.24-37.12 0-10.24 10.24-10.24 26.88 0 35.84 10.24 10.24 26.88 10.24 37.12 0C247.04 686.08 247.04 670.72 236.8 660.48zM870.4 322.56l0 96-67.84 7.68c-7.68 37.12-21.76 70.4-42.24 99.84l42.24 53.76-67.84 67.84-53.76-42.24c-30.72 20.48-64 34.56-101.12 42.24l-7.68 67.84-96 0-7.68-67.84c-24.32-5.12-48.64-12.8-70.4-24.32l66.56-72.96c19.2 6.4 38.4 8.96 60.16 8.96 106.24 0 192-85.76 192-190.72 0-104.96-85.76-190.72-192-190.72-106.24 0-192 85.76-192 190.72 0 21.76 3.84 43.52 11.52 64l-76.8 58.88c-10.24-20.48-17.92-42.24-21.76-65.28l-67.84-7.68 0-96 67.84-7.68c7.68-37.12 21.76-70.4 42.24-99.84L243.2 160l67.84-67.84 53.76 42.24c30.72-20.48 64-34.56 101.12-42.24l7.68-67.84 96 0 7.68 67.84c37.12 7.68 71.68 21.76 101.12 42.24l53.76-42.24 67.84 67.84-42.24 53.76c20.48 29.44 34.56 64 42.24 99.84L870.4 322.56z"  horiz-adv-x="1024" />

    
    <glyph glyph-name="flag" unicode="&#58929;" d="M76.8-76.8c-14.1312 0-25.6 11.4688-25.6 25.6l0 768c0 14.1312 11.4688 25.6 25.6 25.6s25.6-11.4688 25.6-25.6l0-768c0-14.1312-11.4688-25.6-25.6-25.6zM179.2 384c-5.3248 0-10.752 1.6896-15.36 5.12-11.3152 8.4992-13.6192 24.5248-5.12 35.84 3.4304 4.608 85.8112 112.64 199.68 112.64 86.7328 0 144.0256-30.6688 194.6112-57.7024 44.8-23.9616 83.5072-44.6976 138.1888-44.6976 112.2304 0 192.4096 106.496 238.08 190.3616-35.7376-20.3264-81.408-36.7616-135.68-36.7616-112.9984 0-171.3664 58.368-222.9248 109.8752-50.944 50.944-94.9248 94.9248-186.6752 94.9248-113.8688 0-183.6544-91.2384-184.32-92.16-8.4992-11.3152-24.5248-13.6192-35.84-5.12s-13.6192 24.5248-5.12 35.84c3.4304 4.608 86.0672 112.64 225.28 112.64 112.9984 0 171.3664-58.368 222.9248-109.8752 50.944-50.944 94.9248-94.9248 186.6752-94.9248 113.8688 0 183.6544 91.2384 184.32 92.16 7.5264 10.0352 21.248 13.1584 32.3584 7.3216s16.384-18.8416 12.3904-30.7712c-1.0752-3.2768-27.2896-80.9472-79.7696-159.6928-31.3344-47.0016-65.6384-84.6336-101.9392-111.872-47.0016-35.2256-97.3824-53.0944-149.76-53.0944-67.4816 0-115.712 25.8048-162.3552 50.7392-49.664 26.5728-96.5632 51.6608-170.4448 51.6608-88.576 0-158.0544-91.2384-158.72-92.16-5.0176-6.7072-12.6976-10.24-20.48-10.24z"  horiz-adv-x="1024" />

    
    <glyph glyph-name="zhifubao" unicode="&#58907;" d="M511.997-126.91c-69.032 0-136.015 13.527-199.087 40.204-60.903 25.765-115.601 62.637-162.565 109.601C103.383 69.853 66.509 124.551 40.746 185.46c-26.679 63.067-40.2 130.049-40.2 199.088 0 69.033 13.522 136.016 40.2 199.087 25.763 60.904 62.636 115.602 109.599 162.566C197.309 793.163 252.006 830.037 312.91 855.8 375.982 882.478 442.965 896 511.997 896c69.034 0 136.023-13.522 199.088-40.2 60.909-25.762 115.601-62.642 162.564-109.599 46.965-46.964 83.837-101.661 109.601-162.566 26.677-63.071 40.204-130.054 40.204-199.093 0-69.033-13.527-136.016-40.204-199.087-25.764-60.909-62.636-115.602-109.601-162.56-46.964-46.964-101.655-83.842-162.559-109.601C648.014-113.381 581.031-126.91 511.997-126.91L511.997-126.91zM511.997 860.97c-64.32 0-126.711-12.597-185.442-37.436-56.73-23.997-107.678-58.346-151.437-102.106-43.761-43.753-78.11-94.707-102.107-151.438-24.838-58.73-37.436-121.122-37.436-185.442 0-64.319 12.598-126.717 37.436-185.441 23.997-56.73 58.352-107.684 102.107-151.438 43.759-43.759 94.707-78.114 151.437-102.106 58.731-24.845 121.124-37.437 185.442-37.437 64.326 0 126.718 12.592 185.442 37.437 56.73 23.996 107.684 58.348 151.438 102.106 43.761 43.755 78.114 94.703 102.106 151.438 24.845 58.726 37.437 121.116 37.437 185.441 0 64.324-12.592 126.718-37.437 185.442-23.996 56.73-58.346 107.684-102.106 151.438-43.755 43.761-94.708 78.115-151.438 102.106C638.714 848.373 576.323 860.97 511.997 860.97L511.997 860.97zM607.874 331.052c53.033 96.426 72.318 188.025 72.318 188.025l-9.645 0 0 0L588.59 519.077l-86.78 0 0 67.5 212.132 0 0 28.924L501.81 615.501 501.81 716.746l-96.423 0 0-101.245L212.541 615.501l0-28.924 192.846 0 0-67.5-163.92 0 0-28.926 332.662 0c0-4.821-28.926-91.603-48.212-130.169-245.879 96.423-318.198 38.566-337.482 28.926C24.517 273.201 178.793 128.565 202.9 133.387c173.563-38.568 284.446 33.749 361.586 125.353 4.819-4.823 9.642-4.823 14.464-4.823 53.032-28.924 308.552-149.453 308.552-149.453l0 144.63C848.932 249.093 709.118 297.305 607.874 331.052L607.874 331.052zM482.524 287.663c-120.528-154.277-265.161-106.065-289.269-96.422-57.852 14.463-77.137 120.529-4.822 154.277 120.528 38.565 226.595-4.822 303.735-43.393C487.346 292.485 482.524 287.663 482.524 287.663L482.524 287.663z"  horiz-adv-x="1024" />

    
    <glyph glyph-name="user1" unicode="&#58893;" d="M854.937536 82.003921c-1.961678 8.570189-4.745071 17.001209-7.620561 25.297153-7.827269 22.576181-17.480116 44.673455-28.831652 65.699328-31.827893 58.954717-79.116919 111.470791-139.29858 142.198629-14.520715 7.414877-29.53671 13.534248-44.913932 18.434861 21.936615 10.767228 42.188868 25.187659 59.974953 42.974767 42.416042 42.416042 65.775053 98.81147 65.775053 158.796656s-23.359011 116.379591-65.775053 158.795633c-42.416042 42.416042-98.81147 65.776076-158.796656 65.776076s-116.379591-23.360034-158.796656-65.776076c-42.416042-42.416042-65.776076-98.810447-65.776076-158.795633s23.360034-116.379591 65.776076-158.796656c17.686824-17.686824 37.811164-32.04688 59.606563-42.794665-5.229095-1.688455-10.404977-3.526313-15.514345-5.51869-68.27192-26.626427-122.83256-76.448136-161.559583-138.103358-14.083763-22.421662-25.648147-46.188972-35.58752-70.707388-4.736884-11.68411-9.216919-23.64656-12.43317-35.855626-0.143263-0.542352-0.294712-1.081635-0.430812-1.62501-3.110851-12.444427 4.010337-27.217898 17.153682-30.211069 12.720719-2.90005 26.875091 3.817955 30.207999 17.151635 2.066055 8.263198 4.898567 16.376992 7.813966 24.369014 1.538029 4.216022 3.15076 8.405437 4.831029 12.567223 1.007957 2.496867 4.617158 10.728342 0.305969 0.852414 1.12359 2.572592 2.218528 5.157463 3.366677 7.719822 4.932336 11.007705 10.332323 21.806655 16.191774 32.350802 6.77531 12.19167 14.169721 24.042579 22.199605 35.447327 2.097778 2.978844 4.238534 5.928013 6.424316 8.844435 0.924045 1.233084 1.879813 2.443655 2.796696 3.682879-5.714142-7.717775-0.657986-0.88516 0.782829 0.907673 5.004991 6.227842 10.222829 12.285814 15.653515 18.146289 10.964726 11.830443 22.819728 22.75526 35.44528 32.787754 0.407276 0.306992 0.814552 0.615007 1.223874 0.919952 1.545192 1.150196 3.101641 2.286066 4.669346 3.405563 3.750417 2.676969 7.565303 5.262864 11.441587 7.752568 7.494695 4.813632 15.220656 9.267061 23.146163 13.331633 3.820002 1.959631 7.686053 3.828188 11.595083 5.604648 1.926886 0.87595 9.841136 4.111644 1.424442 0.709151 2.488681 1.00591 4.965082 2.039449 7.470135 3.004427 8.839319 3.40454 17.85567 6.345522 26.997887 8.821923 10.026354 2.715855 20.202111 4.872984 30.461779 6.490831 1.116427 0.176009 2.234901 0.338714 3.352351 0.506537 2.307555 0.277316 4.616134 0.551562 6.92983 0.784876 5.362124 0.541329 10.737552 0.943488 16.120143 1.212618 11.579733 0.578168 23.195282 0.556679 34.772968-0.070608 4.91801-0.26606 9.830903-0.644683 14.730493-1.140986 2.270716-0.229221 4.535293-0.49835 6.800893-0.771573 1.565658-0.239454 3.133364-0.467651 4.696975-0.722454 19.458167-3.165086 38.595017-8.312316 56.944943-15.528672 1.988284-0.781806 9.79918-4.303003 1.514493-0.555655 2.053776-0.929162 4.13211-1.801019 6.181793-2.741437 4.036943-1.852184 8.026814-3.805676 11.965519-5.857405 7.978718-4.157693 15.744589-8.721639 23.264866-13.660114 3.518127-2.310625 6.982018-4.702092 10.390651-7.172353 1.330298-0.964978 2.650363-1.942235 3.964288-2.929726-0.425695 0.337691-0.89437 0.709151-1.464351 1.162476 0.536212-0.426719 1.074472-0.849344 1.612731-1.27197 0.023536-0.017396 0.048095-0.034792 0.071631-0.053212 1.026376-0.772596 2.943029-2.321882 1.786693-1.420349 6.490831-5.208629 12.753465-10.700713 18.774599-16.443507 11.086499-10.57587 20.964474-22.073738 30.648021-33.905204 0.394996-0.49835 0.76441-0.970094 1.014096-1.303692 0.913812-1.221828 1.820462-2.448772 2.718925-3.682879 2.298346-3.155876 4.545526-6.350638 6.739495-9.580193 4.064572-5.982248 7.952112-12.085246 11.663644-18.292622 6.497994-10.865465 12.461823-22.049179 17.901719-33.480532 2.309602-4.854565 4.487198-9.765411 6.628978-14.6957 0.413416-1.00591 0.823761-2.010797 1.228991-3.019777 0.8913-2.220574 1.763157-4.448312 2.615571-6.684236 4.348028-11.411911 8.05956-22.992667 11.263531-34.770921 0.146333-0.537236 0.272199-1.082658 0.397043-1.62501 2.870374-12.535501 17.972327-21.113877 30.211069-17.153682C850.900593 56.037527 858.012571 68.573027 854.937536 82.003921zM351.811648 535.405315c0 101.259218 82.380242 183.63946 183.640484 183.63946s183.63946-82.380242 183.63946-183.63946-82.380242-183.63946-183.63946-183.63946S351.811648 434.146097 351.811648 535.405315zM745.109152 196.449463C742.143611 200.090387 743.643778 198.284251 745.109152 196.449463L745.109152 196.449463zM694.119851 247.904369c-0.049119 0.036839-0.099261 0.072655-0.149403 0.110517 1.01819-0.806365 1.658779-1.310855 2.006703-1.583055-0.079818 0.064468-0.157589 0.130983-0.23843 0.195451C695.202509 247.056048 694.66118 247.479697 694.119851 247.904369z"  horiz-adv-x="1024" />

    
    <glyph glyph-name="listsqureo" unicode="&#58897;" d="M832.006 768 191.994 768C156.647 768 128 739.342 128 703.991L128 128.01c0-35.348 28.651-64.01 63.994-64.01l640.012 0C867.353 64 896 92.658 896 128.01L896 703.991C896 739.338 867.349 768 832.006 768zM832 126 192 126 192 704l640 0L832 126zM448 576l256 0 0-64-256 0 0 64ZM448 448l256 0 0-64-256 0 0 64ZM320 576l64 0 0-64-64 0 0 64ZM320 448l64 0 0-64-64 0 0 64ZM448 320l256 0 0-64-256 0 0 64ZM320 320l64 0 0-64-64 0 0 64Z"  horiz-adv-x="1024" />

    
    <glyph glyph-name="checked" unicode="&#58906;" d="M86.890464 411.76946 242.395144 411.76946 403.913794 246.079814 811.089377 667.405675 937.108512 667.405675 389.005246 100.594325Z"  horiz-adv-x="1024" />

    
    <glyph glyph-name="delete1" unicode="&#58925;" d="M158.08 767.36 128.64 737.92 482.56 384 128.64 30.08 158.08 0.64 512 354.56 865.92 0.64 895.36 30.08 541.44 384 895.36 737.92 865.92 767.36 512 413.44 158.08 767.36z"  horiz-adv-x="1024" />

    
    <glyph glyph-name="yanzhengma" unicode="&#58881;" d="M512-127.999999l-10.871556 4.210371C151.981835 11.162198 111.60626 187.557902 111.60626 308.496104L111.60626 770.411537l31.169316-1.068303c242.693341-8.263639 346.035962 101.268855 347.010003 102.337159L512.031421 896l22.214422-24.319607c0.816938-0.879779 98.755201-102.777048 321.087941-102.777048 0 0 0 0 0.031421 0 8.452163 0 17.092851 0.125683 25.859221 0.43989l31.169316 1.068303 0-461.915434c0-120.938202-40.375575-297.333906-389.522184-432.285731L512-127.999999zM171.871127 708.638478l0-400.142375c0-65.04081 0.031421-236.754833 340.128873-371.832341 340.128873 135.077508 340.128873 306.791531 340.128873 371.832341L852.128873 708.638478c-188.335563 0.722676-296.705492 67.742989-340.128873 102.368579C468.545198 776.412888 360.175269 709.423995 171.871127 708.638478zM242.064928 358.61209l61.930163 50.178828 123.923166-91.434182c0 0 171.11703 177.024118 336.326971 259.629088l23.596932-26.581896c0 0-206.496717-171.11703-312.698619-398.319975L242.064928 358.61209z"  horiz-adv-x="1024" />

    
    <glyph glyph-name="daifahuo" unicode="&#58915;" d="M792.74 632.52l34.56 0c2.52 0 9.18-3.18 10.8-5.28l151.8-190.68c0.96-1.14 3.06-7.08 3.06-8.64l0-232.92c0-11.88-4.86-22.74-12.72-30.66-7.92-7.86-18.72-12.72-30.72-12.72l-52.62 0c-6.48-53.7-50.76-95.1-104.16-98.76l0 27.84c43.14 3.9 77.28 40.56 77.28 84.66 0 44.22-34.08 80.64-77.28 84.54l0 28.02c53.34-3.72 97.44-44.94 104.1-98.4l52.68 0c4.38 0 8.28 1.68 11.1 4.5 2.76 2.88 4.56 6.72 4.56 11.1l0 168.72-172.44 0 0 27.78 172.44 0 0 31.62-77.1 96.96-95.34 0 0 27.72 73.2 0-45.36 56.88-27.84 0 0 27.72zM344.48 778.14c17.22-9.6 32.94-21.54 46.74-35.34l0 0c6.78-6.78 13.02-13.92 18.84-21.48l154.44 0c15.3 0 29.34-6.3 39.36-16.32l0-0.06c10.2-10.14 16.38-24 16.38-39.36l0-33 172.5 0 0-27.78-172.5 0 0-425.28 53.04 0c6.96 55.98 55.14 98.64 111.84 98.64 2.52 0 4.98-0.06 7.62-0.18l0-27.96c-2.58 0.3-5.1 0.48-7.62 0.48-46.62 0-84.96-38.34-84.96-84.96 0-46.74 38.22-84.96 84.96-84.96 2.52 0 5.04 0.06 7.62 0.36l0-27.9c-2.64-0.12-5.1-0.24-7.62-0.24-56.7 0-105.06 42.96-111.96 98.94l-281.04 0c-4.02-32.76-22.02-60.96-47.64-78.78l0 37.02c12.84 14.88 20.7 34.26 20.7 55.5 0 21.12-7.8 40.5-20.7 55.44l0 36.96c25.5-17.76 43.5-45.78 47.52-78.36l200.4 0 0 486c0 7.74-3.18 14.7-8.28 19.8l0-0.06c-4.98 5.16-12 8.22-19.62 8.22l-136.5 0c15.9-29.64 25.02-63.54 25.02-99.48 0-57.96-23.64-110.64-61.74-148.74-13.8-13.86-29.58-25.8-46.74-35.4l0 32.64c9.72 6.6 18.84 14.04 27.12 22.44 33.06 33.06 53.58 78.78 53.58 129.06 0 50.34-20.46 96-53.64 129.12l0 0.12c-8.28 8.28-17.4 15.78-27.12 22.44l0 32.46zM792.74 547.86l-32.64 0c-24.54 0-44.7-20.16-44.7-44.7l0-94.98c0-24.24 20.1-44.34 44.22-44.34l33.12 0 0 27.78-33.12 0c-8.88 0-16.44 7.44-16.44 16.5l0 95.04c0 9.24 7.8 16.98 16.98 16.98l32.58 0 0 27.72zM242.54 804.54c36.9 0 71.7-9.6 101.94-26.46l0-32.46c-29.16 19.62-64.2 31.14-101.94 31.14-11.4 0-22.62-1.02-33.48-3.06l0 28.2c10.92 1.74 22.08 2.64 33.48 2.64l0 0 0 0zM344.48 72.96c-18.36-12.78-40.5-20.28-64.26-20.28-26.82 0-51.6 9.48-71.1 25.44l0 41.04c15.18-23.28 41.4-38.7 71.1-38.7 25.62 0 48.66 11.4 64.26 29.52l0-37.02zM344.48 442.5l0-32.52c-30.24-16.86-64.98-26.4-101.94-26.4-11.4 0-22.56 0.9-33.48 2.64l0 28.2c10.8-2.04 22.02-3.12 33.48-3.12 37.68 0 72.78 11.58 101.94 31.2l0 0 0 0zM344.48 257.88l0-37.02c-15.6 18.12-38.64 29.58-64.26 29.58-29.64 0-55.92-15.54-71.1-38.82l0 41.04c19.5 15.96 44.34 25.44 71.1 25.44 23.76 0 45.9-7.5 64.26-20.22l0 0 0 0zM209.12 547.86l0 36.3 19.5 16.38 0 119.94c0 19.86 27.78 19.86 27.78 0l0-126.42c0-2.46-3-9-4.92-10.68l-42.36-35.52zM209.12 78.12c-21.96 17.94-37.08 43.86-40.74 73.62l-43.86 0c-30.66 0-55.74 25.2-55.74 55.86l0 267.9c-23.16 33.78-36.78 74.64-36.78 118.56 0 57.96 23.64 110.64 61.74 148.8 30.66 30.54 70.74 51.9 115.38 59.1l0-28.26c-37.02-6.84-70.14-24.96-95.76-50.52-33.06-33.12-53.58-78.84-53.58-129.12s20.46-96 53.64-129.06l-0.12 0c25.62-25.62 58.74-43.68 95.76-50.52l0-28.14c-43.32 6.84-82.26 27.12-112.56 56.4l0-235.2c0-15.42 12.54-28.02 27.96-28.02l43.92 0c3.72 29.52 18.84 55.38 40.68 73.2l0-41.16c-8.76-13.26-13.8-29.1-13.8-46.14 0-17.1 5.04-33.06 13.8-46.32l0.06-40.98zM209.12 584.16l-21.96-18.42-19.62-16.5c-15.12-12.72 2.88-33.96 17.94-21.24l23.64 19.86 0 36.3zM209.12 584.16z"  horiz-adv-x="1026" />

    
    <glyph glyph-name="daifukuan" unicode="&#58916;" d="M530.432 49.024 238.656 49.024c-42.56 0-77.056 34.496-77.056 76.992L161.6 690.88C161.6 733.376 196.096 768 238.656 768l477.056 0c42.496 0 77.056-34.624 77.056-77.12l0-348.672c0-6.72-5.504-12.288-12.352-12.288S768 335.488 768 342.208L768 690.88c0 28.864-23.36 52.288-52.224 52.288L238.656 743.168c-28.8 0-52.288-23.424-52.288-52.288l0-564.928c0-28.864 23.488-52.224 52.288-52.224l291.776 0c6.784 0 12.352-5.632 12.352-12.352C542.784 54.528 537.28 49.024 530.432 49.024zM718.592 0c-79.296 0-143.872 64.512-143.872 143.872s64.576 143.872 143.872 143.872 143.808-64.512 143.808-143.872S797.888 0 718.592 0zM718.592 262.976c-65.664 0-119.04-53.504-119.04-119.104s53.376-119.104 119.04-119.104c65.6 0 119.04 53.504 119.04 119.104S784.192 262.976 718.592 262.976zM718.656 131.648c-6.848 0-12.352 5.504-12.352 12.352L706.304 217.6c0 6.848 5.504 12.352 12.352 12.352 6.784 0 12.416-5.504 12.416-12.352l0-73.6C731.136 137.152 725.504 131.648 718.656 131.648zM778.304 131.52l-59.84 0c-6.784 0-12.352 5.504-12.352 12.352 0 6.72 5.568 12.352 12.352 12.352l59.84 0c6.784 0 12.352-5.632 12.352-12.352C790.656 137.024 785.152 131.52 778.304 131.52zM462.016 434.496c-2.624 0-5.312 0.832-7.552 2.56C449.088 441.216 448 448.96 452.16 454.4L577.28 617.472c4.224 5.44 11.968 6.4 17.344 2.304 5.376-4.16 6.464-11.968 2.24-17.344L471.808 439.296C469.376 436.096 465.664 434.496 462.016 434.496zM462.016 194.496c-6.848 0-12.352 5.632-12.352 12.48L449.664 442.688 327.104 602.432C322.944 607.808 324.032 615.616 329.344 619.776c5.44 4.096 13.184 3.136 17.344-2.304L471.808 454.4c1.664-2.176 2.56-4.8 2.56-7.488l0-239.872C474.368 200.128 468.8 194.496 462.016 194.496zM590.208 431.296 333.888 431.296c-6.848 0-12.416 5.504-12.416 12.352 0 6.848 5.568 12.416 12.416 12.416l256.32 0c6.784 0 12.416-5.504 12.416-12.416C602.624 436.864 596.992 431.296 590.208 431.296zM610.24 338.688 313.728 338.688c-6.784 0-12.352 5.632-12.352 12.416 0 6.848 5.568 12.352 12.352 12.352l296.512 0c6.848 0 12.352-5.504 12.352-12.352C622.656 344.32 617.152 338.688 610.24 338.688z"  horiz-adv-x="1024" />

    
    <glyph glyph-name="caidangongxiang" unicode="&#58894;" d="M427.179008 281.587712c-4.36736 0-8.732672 1.668096-12.066816 5.000192-6.66624 6.668288-6.66624 17.475584 0 24.133632l170.665984 170.667008c6.668288 6.667264 17.468416 6.667264 24.133632 0 6.66624-6.658048 6.66624-17.466368 0-24.132608L439.245824 286.587904C435.91168 283.255808 431.546368 281.587712 427.179008 281.587712zM717.312 622.930944 529.579008 622.930944c-18.849792 0-34.132992-15.2832-34.132992-34.132992l0-93.867008 34.132992 0 0 93.867008L717.312 588.797952l0-187.732992-93.865984 0 0-34.132992L717.312 366.931968c18.849792 0 34.134016 15.284224 34.134016 34.132992L751.446016 588.796928C751.446016 607.64672 736.161792 622.930944 717.312 622.930944zM495.446016 273.063936l0-93.868032L307.712 179.195904 307.712 366.92992l93.867008 0 0 34.132992L307.712 401.062912c-18.849792 0-34.132992-15.2832-34.132992-34.132992l0-187.734016c0-18.849792 15.2832-34.131968 34.132992-34.131968l187.734016 0c18.849792 0 34.132992 15.282176 34.132992 34.131968l0 93.868032L495.446016 273.063936z"  horiz-adv-x="1024" />

    
    <glyph glyph-name="weixinzhifu01" unicode="&#58908;" d="M945.067276 550.237115c-4.630461-2.761903-384.02635-229.025137-509.572718-293.468868-22.151509-11.370978-33.265638-6.658653-36.388768-6.658653-20.928658 0-114.160039 199.780069-89.424682 215.000726 24.735357 15.220656 87.523379-74.204026 123.672694-78.008678 29.890774-3.146667 358.933859 158.892847 472.007147 215.112266-82.496899 90.006943-214.359113 148.296511-362.961592 148.296511-249.91491 0-452.510094-164.846442-452.510094-368.196827 0-107.030665 56.170301-203.353454 145.778154-270.628674 12.156878-14.476713 22.063505-28.777417 21.689998-36.623106-0.951675-19.978007-31.620162-105.926518-16.173354-109.402689 38.052664-8.562003 104.647385 57.08002 129.380696 55.17667 14.31196-1.101077 47.078225 0.666172 72.167646 2.349511 32.081673-5.872754 65.405639-9.071609 99.66593-9.071609 249.91491 0 452.511117 164.849512 452.511117 368.199896C994.910475 442.824757 976.85526 499.871007 945.067276 550.237115z"  horiz-adv-x="1024" />

    
    <glyph glyph-name="daohuofangshi" unicode="&#58913;" d="M160.284543 815.343005c-52.984748 0-96.116081-44.917002-96.116081-100.105952l0-630.058836c0-18.356067 14.34266-33.19196 32.06223-33.19196s32.06223 14.835893 32.06223 33.19196L128.292921 715.237053c0 18.599613 14.362102 33.732266 32.014134 33.732266l464.987267 0c8.68173 0 15.773242-7.330966 15.773242-16.340153l0-116.432803c0-1.654686 0.662079-3.071965 0.914836-4.710278 0.320295-2.352581 0.550539-4.666276 1.359974-6.924713 0.732687-2.022053 1.88493-3.682879 2.966565-5.484921 1.084705-1.805112 2.026146-3.664459 3.430122-5.248537 1.539053-1.731434 3.427052-2.957355 5.318122-4.307096 1.283226-0.934279 2.205225-2.25639 3.654226-2.978844L869.01516 477.106538c17.968234-13.882172 27.082822-34.084283 27.082822-60.040445l0-333.958024c0-18.345834 14.362102-33.163307 32.042787-33.163307 17.703197 0 32.06223 14.832823 32.06223 33.163307L960.202998 417.06507c0 48.28061-19.934005 89.340771-56.088436 115.659183-1.292436 0.940418-2.63092 1.757017-4.003174 2.501984L705.133695 636.696256l0 95.932909c0 45.611827-35.83209 82.71384-79.858816 82.71384L160.284543 815.343005 160.284543 815.343005zM322.408991 17.754618c-37.016055 0-67.112514 31.194466-67.112514 69.567425 0 38.369889 30.126134 69.567425 67.112514 69.567425 37.053917 0 67.180052-31.197536 67.180052-69.567425C389.589043 48.949085 359.441419 17.754618 322.408991 17.754618L322.408991 17.754618zM701.390441 17.703453c-37.061081 0-67.186192 31.274284-67.186192 69.743434 0 38.365796 30.126134 69.567425 67.186192 69.567425 37.07336 0 67.205635-31.227212 67.205635-69.567425C768.596076 48.949085 738.444359 17.703453 701.390441 17.703453L701.390441 17.703453zM322.408991 223.237573c-72.341608 0-131.217531-60.959374-131.217531-135.938042 0-74.963319 58.875922-135.944182 131.217531-135.944182 60.530608 0 111.072725 42.821271 126.21868 100.605326l126.635165 0c15.165398-57.785078 65.711608-100.656491 126.171608-100.656491 72.409147 0 131.304512 61.058634 131.304512 136.110981 0 74.963319-58.895365 135.944182-131.304512 135.944182-62.075801 0-113.930819-44.936445-127.534652-104.97689L449.91192 118.382457C436.240549 178.32978 384.459209 223.237573 322.408991 223.237573L322.408991 223.237573zM673.101141 317.497377c-17.700127 0-32.06223 14.838963-32.06223 33.19503L641.038912 483.432617c0 18.330484 14.362102 33.19503 32.06223 33.19503 17.703197 0 32.033577-14.864546 32.033577-33.19503l0-99.568716 96.141664 0c17.703197 0 32.06223-14.864546 32.06223-33.19503 0-18.356067-14.359033-33.20424-32.06223-33.20424L673.101141 317.464631 673.101141 317.497377zM673.101141 317.497377"  horiz-adv-x="1024" />

    
    <glyph glyph-name="limi-list" unicode="&#58933;" d="M252.886 140.662h640.983v-30.699h-640.983v30.699zM252.885 390.183h640.983v-30.699h-640.983v30.699zM253.737 646.672h640.985v-30.699h-640.985v30.699zM125.686 646.672h65.806v-30.699h-65.806v30.699zM125.686 390.183h65.806v-30.699h-65.806v30.699zM125.686 140.662h65.806v-30.699h-65.806v30.699z"  horiz-adv-x="1024" />

    
    <glyph glyph-name="key" unicode="&#58887;" d="M256 42.656l42.656 0 0 85.344 85.344 0 0 85.344 85.344 0 0 42.656 85.344 0 0 60.672c26.144-11.424 54.944-18.016 85.344-18.016 117.792 0 213.344 95.52 213.344 213.344s-95.52 213.344-213.344 213.344-213.344-95.52-213.344-213.344c0-30.368 6.56-59.168 18.016-85.344l-60.672 0 0-85.344-213.344-170.656 0-128 85.344 0zM682.656 640c47.104 0 85.344-38.176 85.344-85.344s-38.24-85.344-85.344-85.344c-47.136 0-85.344 38.176-85.344 85.344s38.24 85.344 85.344 85.344z"  horiz-adv-x="1024" />

    
    <glyph glyph-name="kefu" unicode="&#58932;" d="M513.221632 685.883392c-161.69984 0-292.772864-131.085312-292.772864-292.773888 0-79.195136 31.475712-150.924288 82.481152-203.652096 23.204864-20.88448 48.500736-39.310336 76.347392-53.7856 15.13984-7.8336 31.843328-15.760384 49.350656-22.928384 26.788864-8.01792 55.186432-12.430336 84.593664-12.430336 161.69984 0 292.773888 131.095552 292.773888 292.796416C805.99552 554.79808 674.922496 685.883392 513.221632 685.883392zM513.221632 144.24064c-137.414656 0-248.86784 111.429632-248.86784 248.86784 0 137.450496 111.453184 248.846336 248.86784 248.846336 137.46176 0 248.869888-111.39584 248.869888-248.846336C762.09152 255.671296 650.684416 144.24064 513.221632 144.24064zM353.682432 334.086144c165.881856-140.081152 319.104 0 319.104 0s0-144.905216-159.563776-144.905216C353.682432 189.180928 353.682432 334.086144 353.682432 334.086144zM513.221632 776.773632c-180.125696 0-331.23328-124.112896-372.52096-291.521536 0 0-103.34208-16.347136-98.76992-120.287232 4.57216-103.917568 113.56672-110.258176 113.56672-110.258176 1.308672-3.332096 24.214528 3.239936 32.441344 4.639744-16.978944 41.218048-26.422272 86.387712-26.422272 133.762048 0 194.244608 157.472768 351.706112 351.704064 351.706112 194.255872 0 351.683584-157.461504 351.683584-351.706112 0-154.989568-100.217856-286.501888-239.38048-333.324288-8.983552-3.055616-18.425856 1.009664-18.425856 1.009664s-23.57248 4.412416-53.141504-3.951616c-14.5664-4.158464-20.815872-19.690496-19.9424-33.29024 1.08032-16.197632 7.235584-27.845632 24.170496-30.419968 21.804032-3.424256 52.796416-7.30624 64.514048 16.014336 3.170304 6.341632 6.618112 18.081792 14.061568 20.608 107.5456 36.553728 193.634304 119.518208 234.437632 224.9984 0 0 108.397568 12.68224 111.592448 112.623616 3.193856 99.907584-96.956416 117.610496-96.956416 117.610496C844.642304 652.522496 693.441536 776.773632 513.221632 776.773632z"  horiz-adv-x="1024" />

    
    <glyph glyph-name="message" unicode="&#58928;" d="M511.999 831.696c-247.263 0-447.697-200.434-447.697-447.697 0-115.274 45.035-220.899 117.050-300.417-9.442-34.333-29.327-58.744-62.848-92.24-18.058-18.34-36.142-36.677-54.202-55.040 129.055 0 269.604 1.992 399.281 2.101 15.885-1.412 32.035-2.101 48.416-2.101 247.251 0 447.697 200.434 447.697 447.697s-200.445 447.697-447.697 447.697zM511.999-15.508c-38.202 0-75.123 5.717-110.029 16.312l-86.116-17.031c-52.47-1.969-116.98-3.558-147.35-6.204 8.198 9.934 16.407 19.845 24.604 29.779 9.986 11.886 19.974 23.771 29.96 35.659 0.086-0.074 0.17-0.149 0.256-0.222l32.063 37.522-31.987 35.247c-64.041 71.566-103.137 166.306-103.137 268.445 0 216.342 175.38 391.735 391.735 391.735 216.344 0 391.735-175.392 391.735-391.735s-175.392-399.506-391.735-399.506zM263.28 384.001c0-27.473 22.271-49.744 49.744-49.744s49.744 22.271 49.744 49.744c0 0 0 0 0 0 0 27.473-22.271 49.744-49.744 49.744-27.473 0-49.744-22.271-49.744-49.744 0-0 0-0 0-0zM462.256 384.001c0-27.473 22.271-49.744 49.744-49.744s49.744 22.271 49.744 49.744c0 0 0 0 0 0 0 27.473-22.271 49.744-49.744 49.744-27.473 0-49.744-22.271-49.744-49.744 0-0 0-0 0-0zM661.232 384.001c0-27.473 22.271-49.744 49.744-49.744s49.744 22.271 49.744 49.744c0 0 0 0 0 0 0 27.473-22.271 49.744-49.744 49.744-27.473 0-49.744-22.271-49.744-49.744 0-0 0-0 0-0z"  horiz-adv-x="1024" />

    
    <glyph glyph-name="wuxing" unicode="&#58898;" d="M749.538021 33.563676 514.26867 157.006126 279.20091 33.176866 323.898925 295.078785 133.491317 480.376001 396.386866 518.797056 513.775436 757.145535 631.555933 518.99046 894.513904 481.000218 704.410218 295.390893Z"  horiz-adv-x="1024" />

    
    <glyph glyph-name="tuichu" unicode="&#58941;" d="M533.926 0.122c-44.238 0-87.201 8.705-127.613 25.965-39.062 16.589-74.092 40.364-104.194 70.669-30.106 30.304-53.728 65.609-70.263 104.899-17.093 40.676-25.765 83.898-25.765 128.448 0 53.315 12.99 106.236 37.526 153.125 23.726 45.302 58.196 85.076 99.706 115.022 11.532 8.317 27.557 5.626 35.798-5.961 8.234-11.579 5.607-27.679-5.922-35.949-35.079-25.373-64.19-58.909-84.194-97.145-20.991-40.084-31.632-83.509-31.632-129.091 0-74.367 28.777-144.293 81.030-196.859 52.221-52.589 121.668-81.559 195.526-81.559 73.834 0 143.303 28.97 195.553 81.559 52.247 52.566 81.002 122.491 81.002 196.859 0 45.533-10.617 89.035-31.638 129.091-20 38.212-49.135 71.773-84.217 97.094-11.504 8.271-14.187 24.374-5.922 35.954 8.271 11.582 24.265 14.304 35.773 5.958 41.533-29.946 76.052-69.723 99.754-115.022 24.569-46.889 37.554-99.815 37.554-153.125 0-44.55-8.673-87.771-25.795-128.475-16.506-39.29-40.153-74.601-70.258-104.899-30.103-30.298-65.134-54.055-104.194-70.723-40.435-17.152-83.374-25.833-127.612-25.833v0 0zM541.631 358.201c-14.158 0-25.637 11.504-25.637 25.785v305.635c0 14.226 11.482 25.808 25.637 25.808 14.16 0 25.668-11.582 25.668-25.808v-305.635c0-14.279-11.507-25.785-25.668-25.785v0 0zM541.631 358.201z"  horiz-adv-x="1024" />

    
    <glyph glyph-name="rarrow" unicode="&#58900;" d="M390.166 101.44c-9.941 0-19.882 3.776-27.477 11.349-15.211 15.211-15.211 39.787 0 54.955l216.213 216.256-216.213 216.213c-15.211 15.168-15.211 39.765 0 54.955 15.168 15.211 39.765 15.211 54.955 0l243.669-243.711c7.317-7.254 11.413-17.173 11.413-27.456 0-10.304-4.096-20.203-11.413-27.499l-243.669-243.711c-7.573-7.573-17.536-11.349-27.477-11.349z"  horiz-adv-x="1024" />

    
    <glyph glyph-name="clear" unicode="&#58884;" d="M900.405077 121.513774l0.063445 0 0 0.394996L900.405077 121.513774zM959.737394 384.525979c0 247.187799-201.106274 448.248024-448.248024 448.248024-247.202125 0-448.26542-201.060225-448.26542-448.248024 0-247.173472 201.064318-448.248024 448.26542-448.248024C758.62498-63.721021 959.737394 137.352507 959.737394 384.525979M511.48937 0.593773c-211.68112 0-383.929136 172.282808-383.929136 383.932206 0 211.673957 172.248016 383.91481 383.929136 383.91481 211.646328 0 383.897414-172.240853 383.897414-383.91481C895.386784 172.876582 723.135698 0.593773 511.48937 0.593773M695.13804 244.144742 556.532239 383.162936l138.478911 136.929626c12.56927 12.411681 12.663414 32.701796 0.251733 45.270043-12.411681 12.585643-32.733519 12.68695-45.301765 0.2415L511.35634 428.506656 374.821711 565.475168c-12.505825 12.512988-32.761148 12.56927-45.294602 0.063445-12.512988-12.520151-12.512988-32.775474-0.069585-45.284369l136.37704-136.77613L328.375889 247.509373c-12.56927-12.43931-12.694113-32.662911-0.251733-45.235251 6.284123-6.347568 14.481829-9.522887 22.734794-9.522887 8.124028 0 16.314571 3.108804 22.535249 9.236362l137.646963 136.161123L649.77283 198.909491c6.252401-6.252401 14.474666-9.397021 22.696931-9.397021 8.190543 0 16.349363 3.143597 22.601764 9.333576C707.58042 211.320149 707.612143 231.579565 695.13804 244.144742"  horiz-adv-x="1024" />

    
    <glyph glyph-name="dingdan" unicode="&#58905;" d="M763.488243 784.906809 567.636646 784.906809c2.889817-10.584056 3.435239-22.101367 0.004093-32.517601l195.847503 0c26.903743 0 48.789193-21.89159 48.789193-48.765657l0-682.868599c0-26.912953-21.88545-48.77282-48.789193-48.77282L243.072573-28.017868c-26.903743 0-48.787146 21.859867-48.787146 48.77282L194.285426 703.623551c0 26.874067 21.883403 48.765657 48.787146 48.765657l193.414081 0c-3.420913 10.416234-2.62171 21.933545 0.260943 32.517601L243.072573 784.906809c-44.834114 0-81.31498-36.467563-81.31498-81.284281l0-682.868599c0-44.827975 36.480866-81.306794 81.31498-81.306794l520.41567 0c44.834114 0 81.317027 36.478819 81.317027 81.306794L844.80527 703.623551C844.804247 748.440269 808.321334 784.906809 763.488243 784.906809zM500.74619 736.285438c-44.709271 0-63.998593-5.614881-63.998593 32.241308 0 35.873022 29.490661 65.297169 65.361637 65.297169 35.878139 0 65.051575-29.179576 65.051575-65.051575C567.160809 732.930017 546.598494 736.285438 500.74619 736.285438zM502.109234 801.182494c-17.936511 0-32.524764-14.575973-32.524764-32.533974 0-17.910928 14.588253-32.486902 32.524764-32.486902 17.928325 0 32.527834 14.575973 32.527834 32.486902C534.637068 786.605497 520.036535 801.182494 502.109234 801.182494zM633.382023 703.66346 373.173676 703.66346c-8.978489 0-16.260335 7.275707-16.260335 16.247033 0 8.986675 7.281847 16.275685 16.260335 16.275685l260.208347 0c8.989745 0 16.266475-7.28901 16.266475-16.275685C649.648498 710.939167 642.371768 703.66346 633.382023 703.66346zM633.382023 654.886547 373.173676 654.886547c-8.978489 0-16.260335 7.275707-16.260335 16.247033 0 8.986675 7.281847 16.258289 16.260335 16.258289l260.208347 0c8.989745 0 16.266475-7.271614 16.266475-16.258289C649.648498 662.162254 642.371768 654.886547 633.382023 654.886547zM389.447315 508.527155c-8.982582 0-16.261359 7.275707-16.261359 16.259312 0 8.986675 7.277754 16.243963 16.261359 16.243963l352.362186 0.073678c8.973372 0 16.260335-7.27673 16.260335-16.259312 0-8.971325-7.271614-16.247033-16.260335-16.247033L389.447315 508.527155zM295.054481 492.295472l-6.386454 0c-16.173354 0-29.331026 13.145391-29.331026 29.322839l0 6.382361c0 16.161075 13.157671 29.318746 29.331026 29.318746l6.386454 0c16.173354 0 29.335119-13.157671 29.335119-29.318746l0-6.382361C324.388577 505.440863 311.227836 492.295472 295.054481 492.295472zM295.054481 362.224044l-6.386454 0c-16.173354 0-29.331026 13.156648-29.331026 29.331026l0 6.374174c0 16.158005 13.157671 29.330002 29.331026 29.330002l6.386454 0c16.173354 0 29.335119-13.173021 29.335119-29.330002l0-6.374174C324.388577 375.380692 311.227836 362.224044 295.054481 362.224044zM295.054481 232.13522l-6.386454 0c-16.173354 0-29.331026 13.161764-29.331026 29.318746l0 6.401804c0 16.158005 13.157671 29.346375 29.331026 29.346375l6.386454 0c16.173354 0 29.335119-13.18837 29.335119-29.346375l0-6.401804C324.388577 245.296985 311.227836 232.13522 295.054481 232.13522zM295.054481 102.079142l-6.386454 0c-16.173354 0-29.331026 13.155624-29.331026 29.317723l0 6.385431c0 16.159028 13.157671 29.332049 29.331026 29.332049l6.386454 0c16.173354 0 29.335119-13.173021 29.335119-29.332049l0-6.385431C324.388577 115.234767 311.227836 102.079142 295.054481 102.079142zM389.447315 378.443447c-8.982582 0-16.261359 7.287987-16.261359 16.270569 0 8.971325 7.277754 16.243963 16.261359 16.243963l352.362186 0.069585c8.973372 0 16.260335-7.260357 16.260335-16.243963 0-8.997931-7.271614-16.274662-16.260335-16.274662L389.447315 378.443447zM389.441175 248.366903c-8.982582 0-16.266475 7.287987-16.266475 16.259312s7.284917 16.274662 16.266475 16.274662l352.368326 0.069585c8.973372 0 16.260335-7.30436 16.260335-16.273638 0-8.968256-7.271614-16.260335-16.260335-16.260335L389.441175 248.366903zM389.441175 118.309802c-8.982582 0-16.266475 7.260357-16.266475 16.260335 0 8.970302 7.284917 16.242939 16.266475 16.242939l352.368326 0.069585c8.973372 0 16.260335-7.27673 16.260335-16.259312 0-8.955976-7.271614-16.243963-16.260335-16.243963L389.441175 118.309802z"  horiz-adv-x="1024" />

    
    <glyph glyph-name="yue" unicode="&#58911;" d="M84.199169 164.458865c-10.738575 0-19.442818 8.705266-19.442818 19.442818L64.756351 639.976976c0 21.643949 17.609053 39.253002 39.254026 39.253002l161.557536 0c10.737552 0 19.442818-8.705266 19.442818-19.442818s-8.705266-19.442818-19.442818-19.442818L104.010377 640.344343c-0.202615 0-0.36839-0.164752-0.36839-0.367367l0-456.075293C103.641987 173.164131 94.936721 164.458865 84.199169 164.458865zM758.328733 517.100414c-10.737552 0-19.442818 8.704243-19.442818 19.442818L738.885915 639.976976c0 0.202615-0.165776 0.367367-0.36839 0.367367l-63.644529 0c-10.737552 0-19.442818 8.705266-19.442818 19.442818s8.705266 19.442818 19.442818 19.442818l63.644529 0c21.644973 0 39.254026-17.609053 39.254026-39.253002l0-103.433744C777.771551 525.80568 769.066285 517.100414 758.328733 517.100414zM265.583263 640.340249c-7.052626 0-13.856589 3.848655-17.305131 10.552334-4.912893 9.54847-1.154289 21.271466 8.394181 26.183336L538.068214 821.845093c9.546424 4.912893 21.271466 1.154289 26.184359-8.394181 4.91187-9.54847 1.154289-21.271466-8.394181-26.183336L274.461467 642.498402C271.616676 641.035074 268.576433 640.340249 265.583263 640.340249zM388.975571 609.64618c-7.05365 0-13.856589 3.848655-17.305131 10.552334-4.912893 9.54847-1.154289 21.271466 8.394181 26.183336l223.007073 114.730021c9.547447 4.912893 21.271466 1.154289 26.184359-8.394181 4.91187-9.54847 1.154289-21.271466-8.394181-26.183336L397.853775 611.804333C395.008984 610.339981 391.968741 609.64618 388.975571 609.64618zM869.367689 164.460912 740.016669 164.460912c-48.784076 0-88.471984 39.687908-88.471984 88.470961 0 48.784076 39.687908 88.471984 88.471984 88.471984l129.35102 0c48.783053 0 88.470961-39.687908 88.470961-88.471984C957.838649 204.148819 918.150742 164.460912 869.367689 164.460912zM740.016669 302.518221c-27.342742 0-49.586348-22.243607-49.586348-49.586348 0-27.341718 22.243607-49.585325 49.586348-49.585325l129.35102 0c27.341718 0 49.585325 22.243607 49.585325 49.585325 0 27.342742-22.243607 49.586348-49.585325 49.586348L740.016669 302.518221zM819.106981-55.07613 115.651508-55.07613c-28.064172 0-50.895157 22.832008-50.895157 50.895157L64.756351 505.090892c0 28.064172 22.832008 50.895157 50.895157 50.895157l703.455473 0c28.064172 0 50.895157-22.832008 50.895157-50.895157l0-183.129854-38.885636 0L831.116503 505.090892c0 6.621814-5.387707 12.009522-12.009522 12.009522L115.651508 517.100414c-6.621814 0-12.009522-5.387707-12.009522-12.009522l0-509.271866c0-6.622838 5.387707-12.009522 12.009522-12.009522l703.455473 0c6.622838 0 12.009522 5.387707 12.009522 12.009522L831.116503 183.903729l38.885636 0 0-188.084703C870.002139-32.245146 847.171154-55.07613 819.106981-55.07613zM792.295336 233.489054l-23.065322 0c-10.737552 0-19.442818 8.705266-19.442818 19.442818s8.705266 19.442818 19.442818 19.442818l23.065322 0c10.737552 0 19.442818-8.705266 19.442818-19.442818S803.032888 233.489054 792.295336 233.489054zM674.887322 640.343319c-5.91778 0-11.760858 2.690272-15.58086 7.792477l-62.905702 84.035952c-6.434549 8.595772-4.681626 20.781302 3.914146 27.215852 8.596795 6.434549 20.782326 4.682649 27.216875-3.914146l62.905702-84.035952c6.434549-8.595772 4.681626-20.781302-3.914146-27.215852C683.028747 641.607102 678.940638 640.343319 674.887322 640.343319z"  horiz-adv-x="1024" />

    
    <glyph glyph-name="caidan" unicode="&#58926;" d="M104.062054 807.847288c-8.125051 0-14.751982-6.626931-14.751982-14.751982l0-302.788118c0-8.18338 6.625908-14.753005 14.751982-14.753005l302.726719 0c8.18645 0 14.756075 6.568602 14.756075 14.753005L421.544849 793.095305c0 8.125051-6.569626 14.751982-14.756075 14.751982L104.062054 807.847288 104.062054 807.847288 104.062054 807.847288zM620.766193 807.847288c-8.125051 0-14.750959-6.626931-14.750959-14.751982l0-302.788118c0-8.18338 6.625908-14.753005 14.750959-14.753005l302.845423 0c8.068769 0 14.751982 6.568602 14.751982 14.753005L938.363597 793.095305c0 8.125051-6.683213 14.751982-14.751982 14.751982L620.766193 807.847288 620.766193 807.847288 620.766193 807.847288zM620.766193 843.808314l302.845423 0c27.949562 0 50.713009-22.880103 50.713009-50.711985l0-302.788118c0-27.950586-22.762423-50.828642-50.713009-50.828642L620.766193 439.479569c-27.888164 0-50.711985 22.820752-50.711985 50.828642L570.054207 793.095305C570.055231 820.928211 592.81663 843.808314 620.766193 843.808314L620.766193 843.808314 620.766193 843.808314zM104.062054 291.141102c-8.125051 0-14.751982-6.623861-14.751982-14.690584l0-302.792211c0-8.182356 6.625908-14.750959 14.751982-14.750959l302.726719 0c8.18645 0 14.756075 6.568602 14.756075 14.750959L421.544849 276.450519c0 8.067746-6.569626 14.690584-14.756075 14.690584L104.062054 291.141102 104.062054 291.141102 104.062054 291.141102zM104.062054 327.217762l302.726719 0c27.950586 0 50.831712-22.818705 50.831712-50.767244l0-302.792211c0.057305-28.006867-22.819728-50.824549-50.770314-50.824549L104.062054-77.166241c-27.894304 0-50.713009 22.817682-50.713009 50.824549L53.349045 276.450519C53.349045 304.339706 76.16775 327.217762 104.062054 327.217762L104.062054 327.217762 104.062054 327.217762zM620.766193 327.217762l302.845423 0c27.949562 0 50.713009-22.818705 50.713009-50.767244l0-302.792211c0-27.948539-22.762423-50.824549-50.713009-50.824549L620.766193-77.166241c-27.888164 0-50.711985 22.817682-50.711985 50.824549L570.054207 276.450519C570.055231 304.339706 592.81663 327.217762 620.766193 327.217762L620.766193 327.217762 620.766193 327.217762zM104.062054 843.808314l302.726719 0c27.950586 0 50.831712-22.880103 50.831712-50.711985l0-302.788118c0-27.950586-22.881127-50.828642-50.831712-50.828642L104.062054 439.479569c-27.894304 0-50.713009 22.878057-50.713009 50.828642L53.349045 793.095305C53.349045 820.928211 76.16775 843.808314 104.062054 843.808314L104.062054 843.808314 104.062054 843.808314zM104.062054 843.808314"  horiz-adv-x="1024" />

    
    <glyph glyph-name="zixun" unicode="&#58910;" d="M369.437585 217.711719l64.901149-86.490863 22.083971 0L607.479073 290.248779l119.321596-159.027923 71.447239 0L607.479073 382.420015 445.380208 207.170642 369.437585 310.653505 233.094314 131.219833l71.446215 0L369.437585 217.711719zM274.238386 623.33904l63.698764 0 0-63.698764-63.698764 0L274.238386 623.33904 274.238386 623.33904zM385.055285 623.33904l365.597629 0 0-63.698764L385.055285 559.640276 385.055285 623.33904 385.055285 623.33904zM274.238386 495.941512l63.698764 0 0-62.822814-63.698764 0L274.238386 495.941512 274.238386 495.941512zM385.055285 495.941512l365.597629 0 0-62.822814L385.055285 433.118698 385.055285 495.941512 385.055285 495.941512zM892.880195 638.605745c0 70.117964-56.839543 126.957507-126.959553 126.957507L258.096754 765.563252c-70.117964 0-126.95853-56.839543-126.95853-126.957507l0-507.817748c0-70.120011 56.840566-126.960577 126.95853-126.960577l507.823887 0c70.120011 0 126.959553 56.840566 126.959553 126.960577L892.880195 638.605745 892.880195 638.605745zM849.773422 139.741927c0-50.774407-41.159422-91.934852-91.933829-91.934852l-490.787886 0c-50.773384 0-91.933829 41.160445-91.933829 91.934852L175.117878 630.520603c0 50.77236 41.160445 91.938945 91.933829 91.938945l490.787886 0c50.774407 0 91.933829-41.166585 91.933829-91.938945L849.773422 139.741927 849.773422 139.741927zM830.055334 154.083563"  horiz-adv-x="1024" />

    
    <glyph glyph-name="zhanghuanquanqsh" unicode="&#58934;" d="M885.354496 601.353216c-33.282048 2.429952-66.721792 9.02144-95.412224 18.719744-9.293824 2.944-18.587648 6.212608-27.933696 9.751552-19.718144 6.132736-46.543872 18.289664-76.986368 35.605504-0.325632 0.160768-0.65024 0.349184-0.973824 0.538624-7.15776 4.078592-14.480384 8.429568-21.93408 13.047808-10.048512 6.078464-19.991552 12.562432-29.93152 19.314688-0.375808 0.272384-0.753664 0.513024-1.133568 0.786432-7.13216 4.861952-14.237696 9.884672-21.285888 15.09888-4.591616 3.32288-9.186304 6.861824-13.77792 10.37312-3.456 2.674688-6.914048 5.185536-10.374144 7.94112-25.283584 19.93728-50.243584 42.304512-73.611264 66.40128-23.365632-24.095744-48.32768-46.464-73.612288-66.40128-3.456-2.75456-6.915072-5.266432-10.37312-7.94112-4.59264-3.511296-9.18528-7.05024-13.77792-10.37312-7.049216-5.215232-14.155776-10.237952-21.285888-15.09888-0.376832-0.273408-0.75776-0.514048-1.135616-0.786432-9.940992-6.752256-19.879936-13.236224-29.929472-19.314688-7.456768-4.61824-14.777344-8.968192-21.935104-13.047808-0.323584-0.18944-0.649216-0.377856-0.970752-0.538624-30.445568-17.31584-57.271296-29.471744-76.990464-35.605504-9.347072-3.539968-18.639872-6.807552-27.932672-9.751552-28.688384-9.698304-62.1312-16.289792-95.4112-18.719744 0 0-0.05632 0-0.080896 0 0.970752-15.74912 1.9712-36.632576 3.132416-59.242496 0.18944 0 0.405504 0 0.621568 0.026624 5.618688-84.390912 21.638144-162.948096 45.81376-233.480192 1.081344-3.078144 1.998848-6.294528 3.080192-9.347072 0.514048-1.431552 1.107968-2.752512 1.620992-4.186112 57.86112-157.677568 158.353408-272.407552 279.13216-314.467328l0-0.431104c15.96416-5.566464 29.417472-8.996864 40.032256-11.157504 10.61888 2.16064 24.070144 5.592064 40.034304 11.157504l0 0.431104c120.777728 42.058752 221.270016 156.788736 279.13216 314.468352 0.514048 1.431552 1.110016 2.752512 1.622016 4.187136 1.082368 3.050496 1.999872 6.26688 3.080192 9.346048 24.175616 70.53312 40.196096 149.08928 45.81376 233.480192 0.216064-0.026624 0.434176-0.026624 0.621568-0.026624 1.16224 22.60992 2.159616 43.493376 3.134464 59.242496C885.407744 601.353216 885.354496 601.353216 885.354496 601.353216zM513.590272 27.742208c-0.535552 0.162816-1.050624 0.406528-1.59232 0.571392-0.539648-0.16384-1.052672-0.407552-1.594368-0.571392-166.565888 51.920896-291.85536 258.683904-303.20128 524.66176 100.059136 22.987776 204.87168 78.988288 301.686784 163.244032 1.02912-0.919552 2.080768-1.701888 3.10784-2.592768 1.028096 0.89088 2.080768 1.673216 3.106816 2.592768 96.816128-84.257792 201.631744-140.256256 301.687808-163.244032C805.445632 286.426112 680.158208 79.663104 513.590272 27.742208zM377.335808 428.78976c-9.670656 9.508864-25.286656 9.508864-34.930688 0l-11.64288-11.481088c-9.619456-9.508864-9.619456-24.962048 0-34.468864L458.04544 257.2288c0.231424-0.246784 0.463872-0.493568 0.707584-0.736256l11.669504-11.478016c9.618432-9.509888 25.259008-9.509888 34.902016 0l221.078528 218.217472c9.67168 9.535488 9.67168 24.96 0 34.468864l-11.614208 11.481088c-9.641984 9.50784-25.283584 9.50784-34.902016 0L487.855104 319.679488 377.335808 428.78976z"  horiz-adv-x="1024" />

    
    <glyph glyph-name="liulanliang" unicode="&#58899;" d="M726.615926 404.041526C644.470337 451.482416 503.058817 398.949893 544.064803 300.029774c41.0003-98.985505-2.737712-205.737813-62.172796-258.004525-59.406655-52.288034-40.272518-129.279445 7.468298-152.056758 87.835653-41.888707 160.224409-13.920259 192.573766 119.785582 19.151194 79.129272 79.773189 121.154438 110.412541 162.322469C891.064884 304.37799 726.615926 404.041526 726.615926 404.041526L726.615926 404.041526zM726.615926 404.041526M589.467334 472.265435c21.488058 1.771127 36.94064 26.390638 33.797814 64.05906-3.198262 37.664158-22.110653 54.015095-43.537588 52.20559-21.505115-1.809506-37.418247-21.082945-34.281107-58.768424C548.705837 492.081868 568.023341 470.433186 589.467334 472.265435L589.467334 472.265435zM589.467334 472.265435M900.398124 361.308479c-8.429198 3.963002-19.090072-0.9211-27.035977-18.023984-7.928847-17.080142-5.913232-30.738854 2.554345-34.680534 8.467577-3.947366 20.217282 3.358886 28.123386 20.456085C911.992891 346.100386 908.871387 357.365377 900.398124 361.308479L900.398124 361.308479zM900.398124 361.308479M696.320565 476.669087c14.220185 0.044065 25.731086 17.584756 25.691285 46.191435 0 28.612365-11.427036 42.148832-25.652906 42.148832-14.203127 0-25.714028-13.520831-25.714028-42.104767C670.646337 494.253843 682.155817 476.669087 696.320565 476.669087L696.320565 476.669087zM696.320565 476.669087M774.777491 452.510125c11.893271-4.086668 26.701936 7.883361 35.230635 32.792849 8.45052 24.846944 2.915394 39.873091-8.973613 43.937016-11.849206 4.063925-25.513604-4.424973-33.959859-29.250596C758.547376 475.102649 762.951028 456.551307 774.777491 452.510125L774.777491 452.510125zM774.777491 452.510125M870.709722 450.76032c-9.562093 5.292058-22.532824 0.316983-33.281828-19.233638-10.800176-19.61743-9.633166-35.929989-0.032693-41.204989 9.572044-5.314801 24.01966 2.432101 34.842579 22.032473C882.979677 431.926109 880.304509 445.44694 870.709722 450.76032L870.709722 450.76032zM870.709722 450.76032M307.181602 750.164573c0 0-192.067729-8.695009-168.85261-172.073615 7.179743-50.822519 40.272518-116.81333 19.151194-195.41098-35.608741-132.867185 14.503053-192.056358 111.65631-197.409538 52.815392-2.892651 106.530561 55.486296 79.433462 129.890669-27.145428 74.354622-14.369437 188.993133 69.007127 256.250456C501.004822 638.607764 402.025003 752.43605 307.181602 750.164573L307.181602 750.164573zM307.181602 750.164573M460.28739 744.411965c18.023984-11.871949 45.348516-2.17624 66.253779 29.389898 20.800076 31.527758 16.075177 56.069091-1.916114 67.985105-17.968548 11.866264-42.387635 6.574206-63.248834-24.947867C440.553402 785.267277 442.320264 756.278229 460.28739 744.411965L460.28739 744.411965zM460.28739 744.411965M149.289792 767.143791c1.211075 18.828525-5.768244 28.207251-15.085848 28.790046-9.33324 0.622595-17.485255-7.78386-18.70628-26.574006-1.171275-18.834211 5.60762-30.866784 14.963603-31.428257C139.734806 737.327459 148.063081 748.353645 149.289792 767.143791L149.289792 767.143791zM149.289792 767.143791M368.603873 799.414968c12.437686-6.778894 30.966286 3.098761 44.647741 28.245631 13.721256 25.109912 10.11788 42.488558-2.336864 49.312939-12.471801 6.801638-29.067229 0.38237-42.733048-24.68632C354.423489 827.138927 356.133493 806.212341 368.603873 799.414968L368.603873 799.414968zM368.603873 799.414968M288.114273 815.790071c12.309756-2.132175 25.108491 12.032573 29.596008 37.962662 4.442031 25.851909-3.465495 39.856033-15.81363 41.988208-12.416365 2.093796-24.487317-8.429198-28.996156-34.298164C268.475522 835.529745 275.760453 817.922246 288.114273 815.790071L288.114273 815.790071zM288.114273 815.790071M203.388753 791.164873c10.987808 0.082444 19.799375 13.819336 19.722617 36.174478-0.122245 22.370778-9.034735 32.915093-19.978478 32.871029-11.027608-0.038379-19.822119-10.660874-19.800797-32.993273C183.45434 804.846328 192.449275 791.147816 203.388753 791.164873L203.388753 791.164873zM203.388753 791.164873"  horiz-adv-x="1024" />

    
    <glyph glyph-name="svgiconxiaolian" unicode="&#58938;" d="M637.521253 470.062546c0.651636 30.836364 26.205091 55.296 57.041455 54.621091s55.296-26.205091 54.644364-57.064727c-0.651636-30.370909-25.460364-54.644364-55.831273-54.644364C662.190344 413.346909 637.195435 438.877091 637.521253 470.062546zM296.692162 470.062546c0.605091 30.906182 26.158545 55.458909 57.064727 54.853818 30.906182-0.605091 55.458909-26.158545 54.853818-57.064727-0.605091-30.533818-25.553455-54.923636-56.064-54.877091C321.384526 413.346909 296.366344 438.877091 296.692162 470.062546zM694.911799 295.098182c-0.186182 18.176 14.405818 33.093818 32.581818 33.28l57.693091 0c18.385455-0.046545 33.256727-15.010909 33.186909-33.373091-0.069818-18.315636-14.894545-33.140364-33.186909-33.186909L757.911071 261.818182c-15.453091-108.101818-106.519273-180.898909-232.005818-180.898909-125.486545 0-216.436364 72.820364-232.005818 180.898909L265.157617 261.818182c-18.385455 0.046545-33.233455 15.010909-33.186909 33.396364 0.069818 18.292364 14.894545 33.117091 33.186909 33.163636l59.042909 0c18.176-0.186182 32.768-15.080727 32.581818-33.28 0-102.004364 84.898909-147.665454 169.029818-147.665454C610.01289 147.432728 694.911799 193.093819 694.911799 295.098182zM513.547435-127.999999C244.933617-124.602181 29.940163 95.883637 33.314708 364.497455 36.619435 626.874182 247.447072 839.307636 509.777253 844.660364c3.607273 1.722182 10.263273 5.655273 15.313455 8.680727 21.829818 14.429091 46.010182 24.971636 71.400727 31.138909 17.733818 3.234909 34.676364-8.494545 37.911273-26.181818 0.046545-0.186182 0.093091-0.349091 0.116364-0.535273 3.397818-17.92-8.285091-35.188364-26.181818-38.725818-17.943273-5.026909-34.955636-12.869818-50.408727-23.272727-12.939636-9.797818-28.253091-15.918545-44.381091-17.710545C281.704526 782.429091 90.216526 598.039273 85.817981 366.196364c-4.375273-231.842909 180.014545-423.330909 411.857454-427.729454 231.842909-4.375273 423.330909 180.014545 427.729454 411.834182 0.046545 2.653091 0.069818 5.306182 0.069818 7.959273 0.279273 105.611636-38.981818 207.522909-110.033454 285.649454-4.375273 4.817455-16.826182 18.385455-58.414545 152.808727-100.235636-108.334545-128.721454-92.648727-143.313454-84.642909-15.918545 8.936727-21.783273 28.951273-13.172364 45.079273 6.306909 12.101818 19.549091 18.967273 33.093818 17.198545 42.193455 31.720727 80.128 68.701091 112.965818 110.033454 7.68 9.146182 19.805091 13.288727 31.511273 10.821818 11.729455-2.606545 21.108364-11.426909 24.482909-22.970182 17.245091-62.882909 38.120727-124.718545 62.440727-185.204364 81.408-90.112 126.231273-207.36 125.672727-328.773818C992.872526 92.369455 779.461617-125.137454 513.547435-127.999999z"  horiz-adv-x="1024" />

    
    <glyph glyph-name="bianji" unicode="&#58921;" d="M908.785955 403.584034c-11.04966 0-20.008706-8.958022-20.008706-20.008706l0-338.328565c0-38.614459-31.416524-70.030983-70.030983-70.030983L202.707748-24.78422c-38.614459 0-70.030983 31.416524-70.030983 70.030983l0 676.303067c0 38.614459 31.416524 70.030983 70.030983 70.030983l362.378308 0c11.04966 0 20.008706 8.958022 20.008706 20.008706 0 11.050684-8.959046 20.008706-20.008706 20.008706L202.707748 831.598224c-60.681034 0-110.049418-49.367361-110.049418-110.049418l0-676.303067c0-60.681034 49.367361-110.049418 110.049418-110.049418l616.038518 0c60.681034 0 110.049418 49.367361 110.049418 110.049418L928.795685 383.574305C928.795685 394.626012 919.836639 403.584034 908.785955 403.584034zM942.576549 778.014842 907.20597 813.385421c-23.405059 23.405059-61.486376 23.400966-84.891436 0l-422.369633-422.36861c-1.295506-1.296529-2.407839-2.76395-3.304256-4.363378L269.318842 159.583834c-4.457522-7.951089-2.977821-17.909905 3.598968-24.221658 3.830235-3.675716 8.823969-5.572926 13.859659-5.572926 3.613294 0 7.247054 0.977257 10.488889 2.973728l219.285309 135.104047c1.327228 0.816598 2.552126 1.784646 3.654226 2.885723l422.369633 422.36861C965.979562 716.528466 965.979562 754.609783 942.576549 778.014842zM418.556794 343.919143l55.42124-55.279001-132.025942-81.343633L418.556794 343.919143zM914.279063 721.420893 505.926678 313.069531l-63.748906 63.586201L850.612021 785.087934c7.798617 7.800663 20.493753 7.804756 28.29544 0l35.371602-35.371602C922.081773 741.915669 922.081773 729.222579 914.279063 721.420893z"  horiz-adv-x="1024" />

    
    <glyph glyph-name="daitihuo" unicode="&#58919;" d="M525.846356 238.715079l72.336492 0 0-36.080753-72.336492 0 0 36.080753ZM940.646594 672.298102 323.601142 672.298102c5.067412-11.18269 8.473999-23.413246 9.959839-36.080753l589.875648 0 0-252.829286L200.768583 383.388063 200.768583 504.823809c-12.842493 1.484817-24.898063 5.067412-36.080753 10.308787l0-420.828534c0-10.395768 0.436952-36.604686 36.080753-36.080753l72.336492 0 0-59.232033c0-2.795673 2.358721-5.067412 5.067412-5.067412l62.027705 0c2.882654 0 5.154393 2.183735 5.154393 5.067412l0 59.145052 433.408037 0 0-59.232033c0-2.795673 2.358721-5.067412 5.154393-5.067412l61.940724 0c2.882654 0 5.154393 2.183735 5.154393 5.067412l0 59.232033 72.336492 0c26.121937 3.40761 36.080753 25.684986 36.080753 36.080753L959.429379 653.428336C959.429379 663.824103 951.043385 672.298102 940.646594 672.298102zM200.768583 94.217081 200.768583 347.133348 923.261645 347.133348l0-252.828262L200.768583 94.305085 200.768583 94.217081 200.768583 94.217081zM525.846356 527.800104l72.336492 0 0-36.080753-72.336492 0 0 36.080753ZM215.445864 774.164141c-83.344197 0-150.876266-67.532069-150.876266-150.788262s67.532069-150.788262 150.788262-150.788262 150.876266 67.444065 150.876266 150.788262S298.703079 774.164141 215.445864 774.164141zM214.659965 503.949906c-65.697281 0-119.076002 53.378721-119.076002 119.076002S148.962683 742.101911 214.659965 742.101911 333.734944 688.810171 333.734944 623.025908 280.531208 503.949906 214.659965 503.949906zM223.39593 604.767056 223.39593 604.767056c-9.959839 0-17.996886 8.037047-17.996886 17.996886l0 61.066821c0 9.871835 8.037047 17.996886 17.996886 17.996886l0 0c9.959839 0 17.996886-8.037047 17.996886-17.996886l0-61.066821C241.392816 612.891084 233.354745 604.767056 223.39593 604.767056zM223.307925 604.767056l-73.03541 0c-9.959839 0-18.258852 8.125051-18.258852 18.171871l0 0c0 9.959839 8.125051 18.171871 18.171871 18.171871l73.03541 0c9.959839 0 18.171871-8.125051 18.171871-18.171871l0 0C241.392816 612.979088 233.267764 604.767056 223.307925 604.767056z"  horiz-adv-x="1024" />

    
    <glyph glyph-name="shanchu" unicode="&#58923;" d="M512.909719 575.175087c-16.020882 0-29.071106-13.050224-29.071106-29.072129l0-444.218244c0-16.019859 13.050224-29.052686 29.071106-29.052686 16.019859 0 29.05371 13.033851 29.05371 29.052686L541.963429 546.102958C541.962405 562.12384 528.928554 575.175087 512.909719 575.175087zM350.672708 575.175087c-16.020882 0-29.072129-13.050224-29.072129-29.072129l0-444.218244c0-16.019859 13.050224-29.052686 29.072129-29.052686 16.019859 0 29.070082 13.033851 29.070082 29.052686L379.74279 546.102958C379.74279 562.12384 366.691543 575.175087 350.672708 575.175087zM675.163103 575.175087c-16.019859 0-29.072129-13.050224-29.072129-29.072129l0-444.218244c0-16.019859 13.052271-29.052686 29.072129-29.052686s29.072129 13.033851 29.072129 29.052686L704.235233 546.102958C704.235233 562.12384 691.182962 575.175087 675.163103 575.175087zM926.405241 710.149175l-190.570313 0 0 68.295456c0 30.653137-27.895327 54.682413-63.517639 54.682413L353.570711 833.127044c-35.624359 0-63.517639-24.028253-63.517639-54.682413l0-68.295456L93.685729 710.149175c-16.020882 0-29.072129-13.050224-29.072129-29.070082 0-16.020882 13.050224-29.072129 29.072129-29.072129l77.886905 0 0-653.725862c0-34.094516 28.508287-61.848627 63.535035-61.848627l555.638893 0c35.026748 0 63.517639 27.754111 63.517639 61.848627L854.264201 652.006963l72.142064 0c16.019859 0 29.05371 13.050224 29.05371 29.072129C955.458951 697.097928 942.4251 710.149175 926.405241 710.149175zM348.142072 774.984832 677.657924 774.984832l0-64.835657L348.142072 710.149175 348.142072 774.984832zM754.612597-5.530714c-0.105401 0-445.941492-1.474584-483.637022-1.474584-12.435217 0-22.396079 3.829212-29.614481 11.383258-12.437264 13.033851-11.682064 32.338522-11.647271 33.144888L229.713822 613.573629c0 36.080753 25.7515 38.890752 33.656541 38.890752 3.89982 0 6.534833-0.562818 6.534833-0.562818l481.915821 0.141216c21.464871 0 44.387953-10.100032 44.387953-38.46915 0-18.005073 0.13917-158.442592 0.280386-296.719912 0.13917-134.166699 0.264013-266.330788 0.264013-282.773272C796.753369 3.49894 769.19164-5.213489 754.612597-5.530714z"  horiz-adv-x="1024" />

    
    </font>
</defs>
</svg>
